<?xml version="1.0" encoding="UTF-8"?>
<svg width="15px" height="18px" viewBox="0 0 15 18" version="1.1" xmlns="http://www.w3.org/2000/svg" xmlns:xlink="http://www.w3.org/1999/xlink">
    <!-- Generator: Sketch 55 (78076) - https://sketchapp.com -->
    <title>alert</title>
    <desc>Created with Sketch.</desc>
    <g id="Page-1" stroke="none" stroke-width="1" fill="none" fill-rule="evenodd">
        <g id="Dashboard:-Desktops---1140-wallet-and-profile-dropdowns-open" transform="translate(-1014.000000, -36.000000)" fill="#333333" fill-rule="nonzero">
            <g id="Header" transform="translate(140.000000, 12.000000)">
                <g id="Notification-Copy-4" transform="translate(874.000000, 23.000000)">
                    <g id="alert" transform="translate(0.493362, 1.334000)">
                        <path d="M5.00033051,15 C5.00029379,15.004378 5,15.0087194 5,15.0130974 C5,16.1104341 5.89542976,17 7,17 C8.10457024,17 9,16.1104341 9,15.0130974 C9,15.0087194 8.99970621,15.004378 8.99966949,15 L5.00033051,15 Z" id="Path"></path>
                        <path d="M13.8313728,12.5559323 L11.9056978,9.86880351 C11.9056978,9.04622906 11.9056978,7.03627523 11.9056978,6.51633025 C11.9056978,4.25543542 10.2106795,2.37084013 7.96198301,1.94613629 L7.96198301,0.913785014 C7.96194372,0.409141316 7.53127455,0 7,0 C6.46870583,0 6.03803666,0.409141316 6.03803666,0.913785014 L6.03803666,1.94617361 C3.78934015,2.37091477 2.09432185,4.25551006 2.09432185,6.51636757 C2.09432185,7.40145336 2.09432185,9.35583741 2.09432185,9.86884083 L0.168646855,12.5559696 C-0.0341943161,12.839006 -0.0556452708,13.2053784 0.112897945,13.5080452 C0.281441161,13.810712 0.612320173,14 0.972782645,14 L13.0271977,14 C13.3876602,14 13.7185392,13.8106746 13.8870824,13.5080452 C14.0556649,13.2053411 14.0341747,12.8389687 13.8313728,12.5559323 Z" id="Path-Copy-2"></path>
                    </g>
                </g>
            </g>
        </g>
    </g>
</svg>