<?xml version="1.0"?>
<svg xmlns="http://www.w3.org/2000/svg" height="512px" viewBox="-128 0 438 438.85714" width="512px"><g transform="matrix(1 0 0 -1 0 438.857)"><path d="m91.855469 438.855469c-50.414063 0-91.425781-41.015625-91.425781-91.425781v-283.429688c0-35.285156 28.707031-64 64-64 35.289062 0 64 28.714844 64 64v246.855469c0 20.171875-16.40625 36.574219-36.574219 36.574219-20.164063 0-36.570313-16.402344-36.570313-36.574219v-219.425781h18.285156v219.425781c0 10.082031 8.203126 18.289062 18.285157 18.289062 10.085937 0 18.289062-8.207031 18.289062-18.289062v-246.855469c0-25.203125-20.511719-45.714844-45.714843-45.714844-25.207032 0-45.714844 20.511719-45.714844 45.714844v283.429688c0 40.328124 32.8125 73.140624 73.140625 73.140624 40.332031 0 73.144531-32.8125 73.144531-73.140624v-256h18.285156v256c0 50.410156-41.011718 91.425781-91.429687 91.425781zm0 0" data-original="#000000" class="active-path" fill="#000000"/><script xmlns="" class="active-path" style=""/><script xmlns="" class="active-path"/></g> </svg>
