<svg height="512pt" viewBox="0 0 512 512" width="512pt" xmlns="http://www.w3.org/2000/svg"><path d="m256 0c-141.386719 0-256 114.613281-256 256s114.613281 256 256 256 256-114.613281 256-256c-.160156-141.320312-114.679688-255.839844-256-256zm0 494.933594c-131.960938 0-238.933594-106.972656-238.933594-238.933594s106.972656-238.933594 238.933594-238.933594 238.933594 106.972656 238.933594 238.933594c-.152344 131.898438-107.035156 238.78125-238.933594 238.933594zm0 0"/><path d="m447.796875 144.675781c-19.429687-33.320312-47.148437-61.039062-80.460937-80.472656-.15625-.09375-.242188-.253906-.402344-.347656-.164063-.09375-.339844-.085938-.511719-.171875-68.34375-39.398438-152.5-39.398438-220.84375 0-.171875.085937-.347656.078125-.511719.171875-.160156.09375-.246094.253906-.402344.347656-33.3125 19.429687-61.03125 47.148437-80.460937 80.460937-.09375.15625-.253906.242188-.347656.402344-.09375.164063-.085938.339844-.171875.511719-39.398438 68.34375-39.398438 152.5 0 220.84375.085937.171875.078125.347656.171875.511719.09375.160156.324219.402344.476562.613281 19.429688 33.207031 47.097657 60.835937 80.332031 80.214844.15625.09375.242188.253906.402344.347656.164063.09375.496094.1875.742188.308594 68.226562 39.21875 152.15625 39.21875 220.382812 0 .246094-.121094.503906-.171875.742188-.308594.238281-.136719.246094-.253906.402344-.347656 33.234374-19.378907 60.902343-47.007813 80.332031-80.214844.152343-.210937.339843-.382813.476562-.613281.136719-.230469.085938-.339844.171875-.511719 39.398438-68.34375 39.398438-152.5 0-220.84375-.085937-.171875-.078125-.347656-.171875-.511719-.09375-.160156-.253906-.246094-.347656-.390625zm-82.152344 284.160157-12.65625-21.914063c-1.511719-2.664063-4.335937-4.308594-7.398437-4.316406-3.0625-.007813-5.890625 1.628906-7.417969 4.28125-1.523437 2.65625-1.511719 5.925781.039063 8.566406l12.671874 21.949219c-26.707031 14.035156-56.203124 21.953125-86.347656 23.183594v-25.386719c0-4.710938-3.824218-8.53125-8.535156-8.53125s-8.535156 3.820312-8.535156 8.53125v25.386719c-30.144532-1.226563-59.636719-9.144532-86.347656-23.175782l12.671874-21.949218c1.550782-2.640626 1.5625-5.910157.039063-8.5625-1.527344-2.65625-4.355469-4.292969-7.417969-4.285157-3.0625.007813-5.886718 1.652344-7.398437 4.316407l-12.65625 21.914062c-25.429688-16.199219-47-37.769531-63.199219-63.199219l21.914062-12.65625c2.664063-1.511719 4.308594-4.335937 4.316407-7.398437.007812-3.0625-1.628907-5.890625-4.285157-7.417969-2.652343-1.523437-5.921874-1.511719-8.5625.039063l-21.949218 12.671874c-14.035156-26.707031-21.953125-56.203124-23.175782-86.347656h25.386719c4.710938 0 8.53125-3.824218 8.53125-8.535156s-3.820312-8.535156-8.53125-8.535156h-25.386719c1.222657-30.144532 9.140626-59.640625 23.175782-86.347656l21.949218 12.671874c2.640626 1.550782 5.910157 1.5625 8.5625.039063 2.65625-1.527344 4.292969-4.355469 4.285157-7.417969-.007813-3.0625-1.652344-5.886718-4.316407-7.398437l-21.914062-12.65625c16.199219-25.429688 37.769531-47 63.199219-63.199219l12.65625 21.914062c1.511719 2.664063 4.335937 4.308594 7.398437 4.316407 3.0625.007812 5.890625-1.628907 7.417969-4.285157 1.523437-2.652343 1.511719-5.921874-.039063-8.5625l-12.671874-21.949218c26.710937-14.03125 56.203124-21.949219 86.347656-23.175782v25.386719c0 4.710938 3.824218 8.53125 8.535156 8.53125s8.535156-3.820312 8.535156-8.53125v-25.386719c30.144532 1.226563 59.636719 9.144532 86.347656 23.175782l-12.671874 21.949218c-1.550782 2.640626-1.5625 5.910157-.039063 8.5625 1.527344 2.65625 4.355469 4.292969 7.417969 4.285157 3.0625-.007813 5.886718-1.652344 7.398437-4.316407l12.65625-21.914062c25.429688 16.199219 47 37.769531 63.199219 63.199219l-21.914062 12.65625c-2.664063 1.511719-4.308594 4.335937-4.316407 7.398437-.007812 3.0625 1.628907 5.890625 4.285157 7.417969 2.652343 1.523437 5.921874 1.511719 8.5625-.039063l21.949218-12.671874c14.035156 26.707031 21.953125 56.203124 23.175782 86.347656h-25.386719c-4.710938 0-8.53125 3.824218-8.53125 8.535156s3.820312 8.535156 8.53125 8.535156h25.386719c-1.222657 30.144532-9.140626 59.640625-23.175782 86.347656l-21.949218-12.671874c-2.640626-1.550782-5.910157-1.5625-8.5625-.039063-2.65625 1.527344-4.292969 4.355469-4.285157 7.417969.007813 3.0625 1.652344 5.886718 4.316407 7.398437l21.914062 12.65625c-16.199219 25.429688-37.769531 47-63.199219 63.199219zm0 0"/><path d="m264.535156 223.078125v-103.613281c0-4.710938-3.824218-8.53125-8.535156-8.53125s-8.535156 3.820312-8.535156 8.53125v103.613281c-12.050782 3.046875-21.472656 12.445313-24.546875 24.492187-3.074219 12.046876.691406 24.8125 9.8125 33.261719l-35.421875 64.945313c-2.257813 4.140625-.734375 9.324218 3.402344 11.582031 4.140624 2.257813 9.324218.734375 11.582031-3.40625l35.421875-64.953125c2.703125.71875 5.488281 1.101562 8.285156 1.132812 17.167969.023438 31.667969-12.734374 33.835938-29.765624 2.167968-17.027344-8.675782-33.011719-25.300782-37.289063zm-8.535156 49.988281c-9.425781 0-17.066406-7.640625-17.066406-17.066406s7.640625-17.066406 17.066406-17.066406 17.066406 7.640625 17.066406 17.066406-7.640625 17.066406-17.066406 17.066406zm0 0"/></svg>