<?xml version="1.0" encoding="UTF-8"?>
<svg width="22px" height="23px" viewBox="0 0 22 23" version="1.1" xmlns="http://www.w3.org/2000/svg" xmlns:xlink="http://www.w3.org/1999/xlink">
    <!-- Generator: Sketch 55 (78076) - https://sketchapp.com -->
    <title>comment</title>
    <desc>Created with Sketch.</desc>
    <g id="Page-1" stroke="none" stroke-width="1" fill="none" fill-rule="evenodd">
        <g id="User-Profile:-Desktops---1140" transform="translate(-350.000000, -614.000000)" fill="#FFFFFF" fill-rule="nonzero">
            <g id="User-info" transform="translate(149.000000, -22.000000)">
                <g id="Social-buttons" transform="translate(21.000000, 625.000000)">
                    <g id="Chat" transform="translate(168.000000, 0.000000)">
                        <g id="comment" transform="translate(12.000000, 11.000000)">
                            <path d="M20.5270696,4.68029889 C19.5448151,3.27215769 18.2106035,2.15989969 16.5247789,1.3436252 C14.8389973,0.527451031 12.9972538,0.11926363 11.0001935,0.11926363 C9.51053604,0.11926363 8.08641095,0.360273763 6.72781823,0.842394345 C5.36922551,1.32446477 4.19888786,1.9760699 3.21671928,2.79705925 C2.2343787,3.61814893 1.45293526,4.59432774 0.871743953,5.72554554 C0.290552651,6.8568135 0,8.043105 0,9.28421941 C0,10.7161858 0.370232104,12.0579677 1.11099731,13.3086121 C1.85176252,14.5591061 2.86446128,15.6094187 4.14956658,16.4590986 C4.05943806,16.8408526 3.95305546,17.2037472 3.83024676,17.5471803 C3.70748107,17.8908643 3.59701344,18.1728537 3.49880088,18.3923961 C3.40050232,18.6119385 3.26763157,18.8555067 3.09971561,19.1227998 C2.93205766,19.3900426 2.80520694,19.5786876 2.71924945,19.6883334 C2.63337796,19.7981799 2.49220816,19.9798529 2.29565404,20.2324997 C2.09935793,20.4856983 1.97242121,20.6502673 1.91518788,20.7268087 C1.90688883,20.7312728 1.87420865,20.7745593 1.81693232,20.8555648 C1.759699,20.9365703 1.73097484,20.9770981 1.73097484,20.9770981 L1.65731542,21.1058041 C1.61633618,21.1775804 1.59793208,21.2228733 1.6019741,21.2415823 C1.60610213,21.2602913 1.59793208,21.3083428 1.57746396,21.3845833 C1.55695285,21.4611247 1.55905986,21.5184555 1.58357,21.5567764 L1.58357,21.5710213 C1.61646518,21.7430138 1.68806059,21.8813501 1.79848522,21.9861807 C1.90890985,22.0911117 2.03386856,22.1341474 2.17293135,22.1147362 C2.70505937,22.0383954 3.17152602,21.9338657 3.5725033,21.7999433 C5.71692548,21.1600251 7.59943318,20.0051828 9.21989739,18.3341624 C9.83359687,18.4105032 10.4270002,18.4488241 10.9999355,18.4488241 C12.9969528,18.4488241 14.8386103,18.0406367 16.5245639,17.2241114 C18.2105175,16.4079372 19.5446,15.2956291 20.5266826,13.8877387 C21.5089372,12.4801994 22,10.9453084 22,9.28416925 C22.000043,7.62297995 21.5090232,6.0881893 20.5270696,4.68029889 Z" id="Path"></path>
                        </g>
                    </g>
                </g>
            </g>
        </g>
    </g>
</svg>