<svg height="503pt" viewBox="0 0 503 503.80517" width="503pt" xmlns="http://www.w3.org/2000/svg"><path d="m430.289062 73.921875c-22.964843-22.949219-50.136718-41.253906-80.03125-53.914063-86.082031-36.65625-185.425781-22.230468-257.519531 37.402344v-23.628906c0-4.632812-3.757812-8.390625-8.394531-8.390625s-8.394531 3.757813-8.394531 8.390625v41.96875c0 4.636719 3.757812 8.394531 8.394531 8.394531h28.46875c-5.144531 4.28125-10.128906 8.777344-14.914062 13.554688-13.234376 13.324219-24.699219 28.296875-34.109376 44.550781-.203124.207031-.394531.421875-.570312.648438-.117188.207031-.117188.445312-.21875.652343-33.96875 59.070313-38.363281 130.625-11.871094 193.402344 3.484375 8.066406 7.445313 15.914063 11.871094 23.503906.101562.207031.101562.441407.21875.652344.25.375.53125.730469.835938 1.058594 18.78125 32.542969 45.832031 59.539062 78.414062 78.25.242188.167969.386719.421875.644531.574219.300781.140624.605469.265624.914063.375 59.023437 33.839843 130.457031 38.1875 193.144531 11.75 7.980469-3.449219 15.746094-7.371094 23.257813-11.75.304687-.105469.605468-.222657.898437-.359376.222656-.175781.4375-.367187.636719-.570312 32.582031-18.710938 59.636718-45.703125 78.421875-78.246094.304687-.332031.582031-.6875.835937-1.0625.117188-.210937.117188-.445312.21875-.65625 39.140625-67.011718 39.140625-149.910156 0-216.921875-.101562-.207031-.101562-.445312-.21875-.652343-.175781-.222657-.363281-.4375-.5625-.640626-18.800781-32.722656-45.945312-59.867187-78.671875-78.671874-.242187-.164063-.382812-.417969-.644531-.570313-.261719-.148437-.445312-.117187-.65625-.214844-59.070312-33.976562-130.632812-38.367187-193.417969-11.871093-8.0625 3.484374-15.910156 7.445312-23.5 11.871093-.210937.097657-.445312.097657-.65625.214844-.222656.179687-.4375.367187-.636719.570313-3.449218 2.007812-6.917968 4.003906-10.25 6.203124-1.570312-1.566406-3.699218-2.441406-5.914062-2.433593h-19.382812c67.238281-52.925781 157.925781-65.140625 236.769531-31.894531 56.371093 23.832031 101.234375 68.691406 125.0625 125.0625 24.636719 58.503906 24.636719 124.472656 0 182.976562-23.828125 56.371094-68.691407 101.234375-125.0625 125.0625-58.503907 24.636719-124.46875 24.636719-182.976563 0-56.367187-23.828125-101.230468-68.691406-125.0625-125.0625-24.636718-58.503906-24.636718-124.472656 0-182.976562 1.8125-4.269532-.179687-9.199219-4.445312-11.011719-4.269532-1.8125-9.203125.179687-11.015625 4.449219-26.394531 62.695312-26.394531 133.382812 0 196.078124 25.539062 60.375 73.589843 108.425782 133.960937 133.96875 62.695313 26.398438 133.386719 26.398438 196.078125 0 60.375-25.539062 108.425781-73.589843 133.96875-133.960937 26.398438-62.695313 26.398438-133.382813 0-196.078125-12.660156-29.902344-30.96875-57.082031-53.917969-80.046875zm-256.480468-7.554687c22.203125-9.382813 45.921875-14.667969 70.011718-15.597657v50.160157c0 4.636718 3.757813 8.394531 8.390626 8.394531 4.636718 0 8.394531-3.757813 8.394531-8.394531v-50.160157c24.085937.941407 47.800781 6.230469 70 15.613281 5.113281 2.15625 10.074219 4.625 14.941406 7.175782l-16.667969 28.882812c-1.523437 2.597656-1.539062 5.8125-.039062 8.425782 1.5 2.609374 4.285156 4.21875 7.296875 4.210937 3.011719-.003906 5.789062-1.625 7.277343-4.242187l16.636719-28.808594c25.144531 15.730468 46.382813 36.96875 62.113281 62.113281l-28.773437 16.667969c-2.617187 1.488281-4.238281 4.265625-4.246094 7.277344-.007812 3.011718 1.601563 5.796874 4.214844 7.296874 2.609375 1.5 5.824219 1.488282 8.425781-.035156l28.871094-16.671875c2.519531 4.886719 5.035156 9.832031 7.175781 14.933594 9.390625 22.203125 14.683594 45.921875 15.621094 70.007813h-50.160156c-4.632813 0-8.390625 3.757812-8.390625 8.394531s3.757812 8.394531 8.390625 8.394531h50.160156c-.9375 24.082031-6.226563 47.800781-15.613281 70-2.15625 5.113281-4.621094 10.074219-7.175782 14.941406l-28.878906-16.667968c-2.601562-1.523438-5.816406-1.539063-8.425781-.039063-2.613281 1.5-4.222656 4.285156-4.214844 7.296875.007813 3.011719 1.628907 5.789062 4.246094 7.277344l28.804687 16.636718c-15.730468 25.140626-36.96875 46.382813-62.109374 62.109376l-16.671876-28.769532c-1.488281-2.621094-4.265624-4.238281-7.277343-4.246094-3.011719-.007812-5.796875 1.601563-7.296875 4.210938-1.5 2.613281-1.484375 5.828125.039062 8.425781l16.667969 28.875c-4.882813 2.519531-9.820313 5.035157-14.929687 7.175781-22.203126 9.390626-45.921876 14.683594-70.011719 15.621094v-50.160156c0-4.636719-3.757813-8.394531-8.394531-8.394531-4.632813 0-8.390626 3.757812-8.390626 8.394531v50.160156c-24.085937-.9375-47.800781-6.226562-70.003906-15.613281-5.109375-2.15625-10.070312-4.625-14.9375-7.183594l16.667969-28.875c2.28125-4.007812.894531-9.109375-3.101563-11.417969-3.992187-2.304687-9.101562-.953124-11.4375 3.027344l-16.632812 28.804688c-25.144531-15.730469-46.382812-36.96875-62.113281-62.113282l28.804687-16.632812c2.621094-1.488281 4.238282-4.265625 4.246094-7.277344.007812-3.015625-1.601562-5.796875-4.210938-7.296875-2.613281-1.5-5.828124-1.488281-8.425781.035157l-28.90625 16.636718c-2.519531-4.886718-5.039062-9.828125-7.179687-14.933594-9.390625-22.199218-14.679688-45.921874-15.617188-70.007812h50.15625c4.636719 0 8.394532-3.757812 8.394532-8.394531s-3.757813-8.394531-8.394532-8.394531h-50.15625c.9375-24.082032 6.226563-47.800782 15.609375-70 2.15625-5.109376 4.625-10.070313 7.175781-14.941407l28.882813 16.671875c2.597656 1.523438 5.8125 1.535156 8.425781.035156 2.613282-1.5 4.21875-4.285156 4.214844-7.296874-.007812-3.011719-1.628906-5.789063-4.246094-7.277344l-28.808594-16.636719c15.730469-25.140625 36.96875-46.378906 62.113282-62.109375l16.636718 28.804688c1.488282 2.621093 4.265626 4.238281 7.277344 4.246093 3.011719.007813 5.796875-1.601562 7.296875-4.214843 1.5-2.609376 1.484375-5.824219-.039062-8.421876l-16.632813-28.910156c4.882813-2.558594 9.820313-5.019531 14.929688-7.175781zm0 0"/><path d="m144.542969 245.070312c-13.109375 13.109376-13.109375 34.363282 0 47.472657l58.753906 58.753906c6.277344 6.320313 14.828125 9.859375 23.734375 9.832031h1.605469c9.46875-.445312 18.308593-4.871094 24.339843-12.1875l117.507813-142.691406c7.839844-9.234375 10.101563-21.976562 5.910156-33.34375-4.1875-11.367188-14.175781-19.59375-26.136719-21.53125-11.957031-1.933594-24.03125 2.722656-31.59375 12.1875l-94.007812 114.152344-32.609375-32.601563c-13.269531-12.726562-34.210937-12.746093-47.503906-.042969zm74.75 51.007813c1.648437 1.710937 3.964843 2.609375 6.335937 2.449219 2.367188-.113282 4.574219-1.21875 6.078125-3.046875l99.882813-121.285157c2.828125-3.449218 6.921875-5.625 11.363281-6.035156 9.222656-.875 17.414063 5.886719 18.296875 15.109375.441406 4.429688-.910156 8.851563-3.75 12.28125l-117.507812 142.6875c-3.035157 3.679688-7.488282 5.894531-12.253907 6.09375l-.707031.007813c-4.453125.011718-8.726562-1.757813-11.867188-4.917969l-58.753906-58.753906c-4.363281-4.214844-6.113281-10.457031-4.578125-16.324219 1.535157-5.871094 6.121094-10.453125 11.988281-11.992188 5.871094-1.535156 12.109376.214844 16.324219 4.578126zm0 0"/></svg>