<?xml version="1.0" encoding="UTF-8"?>
<svg width="25px" height="23px" viewBox="0 0 25 23" version="1.1" xmlns="http://www.w3.org/2000/svg" xmlns:xlink="http://www.w3.org/1999/xlink">
    <!-- Generator: Sketch 55 (78076) - https://sketchapp.com -->
    <title>desktop</title>
    <desc>Created with Sketch.</desc>
    <g id="Page-1" stroke="none" stroke-width="1" fill="none" fill-rule="evenodd">
        <g id="User-Profile:-Desktops---1140" transform="translate(-460.000000, -614.000000)" fill="#FFFFFF" fill-rule="nonzero">
            <g id="User-info" transform="translate(149.000000, -22.000000)">
                <g id="Social-buttons" transform="translate(21.000000, 625.000000)">
                    <g id="website" transform="translate(280.000000, 0.000000)">
                        <path d="M34.3878301,12.2515367 C33.979884,11.8373178 33.4896647,11.63 32.9165336,11.63 L12.0833295,11.63 C11.5104264,11.63 11.0201159,11.8373178 10.6118962,12.2515367 C10.2039046,12.6658945 10,13.163698 10,13.7454567 L10,28.1300347 C10,28.7119324 10.2039046,29.2096896 10.6118962,29.62414 C11.0201159,30.0383589 11.5104264,30.2453062 12.0833295,30.2453062 L19.1667685,30.2453062 C19.1667685,30.5801544 19.0972649,30.9242177 18.9583489,31.2765237 C18.8195241,31.6291075 18.6806081,31.9374679 18.5416921,32.20179 C18.4029585,32.4664363 18.3335005,32.6600934 18.3335005,32.7834098 C18.3335005,33.0125384 18.4159106,33.2112893 18.5808677,33.3783198 C18.7457335,33.5459985 18.9410642,33.63 19.1667685,33.63 L25.8334139,33.63 C26.0591182,33.63 26.2544944,33.5460449 26.4193603,33.3783198 C26.5844541,33.2113356 26.6668642,33.0125847 26.6668642,32.7834098 C26.6668642,32.6691234 26.5972694,32.4772722 26.458399,32.2085046 C26.319483,31.9398759 26.180567,31.6266069 26.0418335,31.2699944 C25.9029175,30.912965 25.8334595,30.5714486 25.8334595,30.2453062 L32.9168984,30.2453062 C33.4897103,30.2453062 33.9799296,30.0383589 34.3878757,29.62414 C34.7960041,29.2097359 34.9999999,28.7119787 34.9999999,28.1300347 L34.9999999,13.7454567 C35.0001367,13.163698 34.7959585,12.6658945 34.3878301,12.2515367 Z M33.8687529,25.5030141 C33.7811257,25.5876401 33.6774255,25.63 33.5576039,25.63 L11.4422509,25.63 C11.3225261,25.63 11.2188258,25.5876401 11.1312955,25.5030141 C11.0438136,25.4177783 11,25.3177658 11,25.2016631 L11,14.0585245 C11,13.9424218 11.0436683,13.842034 11.1312955,13.7572204 C11.2188743,13.6725475 11.3225745,13.63 11.4422509,13.63 L33.5579428,13.63 C33.6775708,13.63 33.7814646,13.6724068 33.8687529,13.7572204 C33.9562832,13.8420809 34,13.9424687 34,14.0585245 L34,25.2016631 C34,25.3177658 33.9562832,25.4180598 33.8687529,25.5030141 Z" id="desktop"></path>
                    </g>
                </g>
            </g>
        </g>
    </g>
</svg>