<?xml version="1.0" encoding="UTF-8"?>
<svg width="28px" height="21px" viewBox="0 0 28 21" version="1.1" xmlns="http://www.w3.org/2000/svg" xmlns:xlink="http://www.w3.org/1999/xlink">
    <!-- Generator: Sketch 55 (78076) - https://sketchapp.com -->
    <title>envelope1</title>
    <desc>Created with Sketch.</desc>
    <g id="Page-1" stroke="none" stroke-width="1" fill="none" fill-rule="evenodd">
        <g id="User-Profile:-Desktops---1140" transform="translate(-403.000000, -615.000000)" fill="#FFFFFF" fill-rule="nonzero">
            <g id="User-info" transform="translate(149.000000, -22.000000)">
                <g id="Social-buttons" transform="translate(21.000000, 625.000000)">
                    <g id="Email" transform="translate(224.000000, 0.000000)">
                        <g id="envelope1" transform="translate(9.000000, 13.000000)">
                            <path d="M3.4049672,6.11164896 C3.74651357,6.34374734 4.77606054,7.03308007 6.4936609,8.17929138 C8.21131403,9.32550269 9.52715411,10.2080559 10.4412339,10.8270019 C10.5416608,10.8948476 10.7550217,11.0423294 11.0814223,11.2696507 C11.4078756,11.4971244 11.6791284,11.6809431 11.8949697,11.8211575 C12.1109692,11.9613212 12.3720897,12.1185606 12.6785948,12.2926217 C12.9849944,12.4665303 13.2738206,12.5973429 13.5450207,12.6839415 C13.8162735,12.7712515 14.0673671,12.8145 14.2983542,12.8145 L14.3135,12.8145 L14.3286986,12.8145 C14.5596857,12.8145 14.8108848,12.7712007 15.0821376,12.6839415 C15.3532321,12.5973429 15.6423222,12.4663778 15.948458,12.2926217 C16.254752,12.1183573 16.5158724,11.9612703 16.731872,11.8211575 C16.9478716,11.6809431 17.2189133,11.4971244 17.5454722,11.2696507 C17.8718199,11.0421262 18.0854447,10.8948476 18.1858716,10.8270019 C19.10982,10.2080559 21.4604843,8.63611915 25.2371259,6.11134403 C25.9703529,5.61823024 26.582941,5.02322084 27.0750485,4.32672239 C27.5675254,3.63052887 27.8135,2.90018379 27.8135,2.13609374 C27.8135,1.49758177 27.5748081,0.951004548 27.0976353,0.496412893 C26.6205153,0.0417195965 26.0554228,-0.1855 25.4027273,-0.1855 L3.22411439,-0.1855 C2.45072719,-0.1855 1.85555416,0.0659610967 1.43870083,0.56888329 C1.02190028,1.07190713 0.8135,1.70066151 0.8135,2.45509562 C0.8135,3.06448729 1.08981903,3.72485219 1.64219323,4.43578373 C2.19451465,5.1467661 2.78229947,5.70543866 3.4049672,6.11164896 Z" id="Path"></path>
                            <path d="M26.3065721,7.99998896 C23.0122815,10.0165802 20.5108498,11.5838045 18.8034908,12.7013276 C18.2309584,13.0827287 17.7665048,13.3804613 17.4098133,13.5938092 C17.0531218,13.8073003 16.5787469,14.0253256 15.9860026,14.2477898 C15.3934694,14.470588 14.8412546,14.581653 14.3288833,14.581653 L14.3135264,14.581653 L14.2983806,14.581653 C13.7861148,14.581653 13.2335834,14.470588 12.6410501,14.2477898 C12.0485169,14.0253256 11.5738254,13.8073003 11.2172394,13.5938092 C10.860759,13.3804613 10.3961471,13.0827287 9.82366756,12.7013276 C8.46756439,11.8020207 5.97151551,10.234701 2.33541538,7.99998896 C1.76272473,7.6550049 1.25547237,7.25957145 0.8135,6.8145 L0.8135,17.6339124 C0.8135,18.233864 1.04944728,18.7469013 1.52160571,19.1738835 C1.99365859,19.6010089 2.56128305,19.8145 3.224268,19.8145 L25.4028903,19.8145 C26.0657169,19.8145 26.6332886,19.6010089 27.1053943,19.1738835 C27.5776583,18.7467581 27.8135,18.2339117 27.8135,17.6339124 L27.8135,6.8145 C27.3815017,7.25035978 26.8794211,7.64579323 26.3065721,7.99998896 Z" id="Path"></path>
                        </g>
                    </g>
                </g>
            </g>
        </g>
    </g>
</svg>