<svg height="476pt" viewBox="-38 0 476 476" width="476pt" xmlns="http://www.w3.org/2000/svg"><path d="m141.191406 181.0625-21.1875 20.539062v-68.820312c0-5.523438-4.476562-10-10-10-5.523437 0-10 4.476562-10 10v68.820312l-21.1875-20.539062c-3.96875-3.84375-10.296875-3.746094-14.140625.21875-3.84375 3.96875-3.746093 10.296875.21875 14.140625l38.148438 36.976563c3.878906 3.761718 10.042969 3.761718 13.921875 0l38.148437-36.972657c3.964844-3.84375 4.0625-10.175781.21875-14.140625-3.84375-3.96875-10.171875-4.066406-14.140625-.222656zm0 0"/><path d="m103.949219 323h103.382812c5.523438 0 10-4.476562 10-10s-4.476562-10-10-10h-103.382812c-5.519531 0-10 4.476562-10 10s4.480469 10 10 10zm0 0"/><path d="m93.949219 356c0 5.523438 4.480469 10 10 10h233.382812c5.523438 0 10-4.476562 10-10s-4.476562-10-10-10h-233.382812c-5.519531 0-10 4.476562-10 10zm0 0"/><path d="m337.332031 389h-233.382812c-5.519531 0-10 4.476562-10 10s4.480469 10 10 10h233.382812c5.523438 0 10-4.476562 10-10s-4.476562-10-10-10zm0 0"/><path d="m9.597656 269h31.40625v156.882812c-.039062 27.597657 22.269532 50.019532 49.867188 50.117188h259.539062c27.570313 0 49.59375-22.546875 49.59375-50.117188v-305.75c.074219-2.578124-.867187-5.078124-2.621094-6.964843l-106.6875-110.074219c-1.835937-1.953125-4.390624-3.0703125-7.074218-3.09375h-192.75c-27.597656.0976562-49.90625 22.519531-49.867188 50.117188v38.882812h-31.40625c-5.523437 0-9.59374975 4.511719-9.59374975 10.035156v160.398438c-.07421875 2.5625.91406275 5.046875 2.73046875 6.855468 1.816406 1.8125 4.300781 2.792969 6.863281 2.710938zm284.40625-234.222656 72.765625 75.222656h-63.148437c-2.597656.011719-5.089844-1.03125-6.902344-2.894531-1.8125-1.859375-2.792969-4.375-2.714844-6.972657zm-233 15.339844c-.050781-16.558594 13.3125-30.03125 29.867188-30.117188h183.132812v80.132812c-.070312 7.898438 3.019532 15.5 8.582032 21.109376 5.5625 5.609374 13.136718 8.761718 21.035156 8.757812h76.382812v295.882812c0 16.542969-13.050781 30.117188-29.59375 30.117188h-259.539062c-16.554688-.085938-29.917969-13.558594-29.867188-30.117188v-156.882812h149.535156c5.523438 0 10.464844-4.042969 10.464844-9.566406v-160.398438c0-5.523437-4.941406-10.035156-10.464844-10.035156h-149.535156zm-41 58.882812h181v140h-181zm0 0"/></svg>