<?xml version="1.0" encoding="iso-8859-1"?>
<!-- Generator: Adobe Illustrator 19.0.0, SVG Export Plug-In . SVG Version: 6.00 Build 0)  -->
<svg version="1.1" id="Capa_1" xmlns="http://www.w3.org/2000/svg" xmlns:xlink="http://www.w3.org/1999/xlink" x="0px" y="0px"
	 viewBox="0 0 512.003 512.003" style="enable-background:new 0 0 512.003 512.003;" xml:space="preserve">
<g>
	<g>
		<path d="M506.439,209.239l-45.6-12.218c-0.558-5.275-2.843-10.401-6.878-14.435c-4.034-4.034-9.159-6.32-14.435-6.877
			l-7.945-29.653c-1.072-4.001-5.187-6.374-9.186-5.304c-4.001,1.072-6.375,5.185-5.304,9.186l7.754,28.939
			c-1.726,1.012-3.364,2.23-4.844,3.71c-7.51,7.51-8.981,18.791-4.444,27.796l-37.819,37.819
			c-9.005-4.537-20.287-3.066-27.796,4.443c-1.467,1.467-2.718,3.093-3.743,4.835l-52.592-14.092
			c0.014-0.335,0.025-0.671,0.025-1.008c0-6.414-2.498-12.444-7.033-16.979c-4.935-4.936-11.501-7.243-17.979-6.975l-14.11-52.66
			c1.726-1.012,3.364-2.23,4.844-3.71c7.51-7.51,8.981-18.791,4.443-27.796l37.82-37.82c3.392,1.709,7.101,2.579,10.817,2.579
			c6.149,0,12.299-2.34,16.98-7.022c1.48-1.479,2.698-3.118,3.71-4.844l52.625,14.101c-0.014,0.335-0.025,0.671-0.025,1.008
			c0,6.415,2.498,12.444,7.033,16.979c4.682,4.682,10.83,7.022,16.98,7.022c6.148,0,12.299-2.341,16.979-7.021
			c4.536-4.536,7.033-10.565,7.033-16.98c0-3.826-0.895-7.513-2.576-10.831l34.463-34.464c2.929-2.929,2.929-7.678,0-10.606
			c-2.929-2.929-7.678-2.929-10.606,0L420.554,80.84c-9.005-4.538-20.287-3.066-27.797,4.444c-0.597,0.597-1.157,1.222-1.683,1.869
			L336.29,72.474c-0.558-5.275-2.843-10.401-6.878-14.435c-4.034-4.034-9.16-6.32-14.435-6.878L302.762,5.562
			c-1.072-4.001-5.187-6.374-9.186-5.304c-4.001,1.072-6.375,5.185-5.304,9.186l12.027,44.885c-1.726,1.012-3.364,2.23-4.844,3.71
			c-7.51,7.51-8.981,18.792-4.443,27.796l-37.819,37.819c-9.005-4.537-20.286-3.066-27.796,4.443
			c-0.599,0.599-1.158,1.224-1.68,1.868l-54.785-14.679c-0.558-5.275-2.843-10.401-6.878-14.435
			c-4.034-4.035-9.16-6.32-14.435-6.878l-12.219-45.6c-1.072-4.001-5.188-6.373-9.186-5.304c-4.001,1.072-6.375,5.185-5.304,9.186
			l12.027,44.886c-1.727,1.012-3.365,2.23-4.844,3.71c-4.536,4.535-7.033,10.565-7.033,16.979c0,3.826,0.895,7.513,2.576,10.831
			l-37.79,37.791c-3.317-1.68-7.004-2.576-10.831-2.576c-6.414,0-12.444,2.498-16.979,7.033c-1.479,1.479-2.698,3.117-3.71,4.844
			L9.443,163.725c-3.997-1.072-8.113,1.302-9.186,5.304c-1.072,4.001,1.303,8.113,5.304,9.186l45.6,12.218
			c0.557,5.275,2.843,10.401,6.878,14.435c4.034,4.034,9.16,6.32,14.435,6.877l14.68,54.785c-0.645,0.523-1.27,1.082-1.87,1.681
			c-7.51,7.51-8.981,18.792-4.443,27.796l-34.478,34.478c-2.929,2.929-2.929,7.678,0,10.606c1.464,1.464,3.384,2.197,5.303,2.197
			c1.919,0,3.839-0.732,5.303-2.197l34.477-34.478c3.392,1.709,7.101,2.579,10.817,2.579c6.149,0,12.299-2.34,16.98-7.022
			c0.6-0.6,1.158-1.225,1.681-1.87l9.155,2.453c0.01,0.003,0.019,0.007,0.029,0.01l45.6,12.219c0.558,5.275,2.843,10.4,6.878,14.435
			c4.034,4.034,9.16,6.32,14.435,6.877l8.024,29.945c0.898,3.351,3.928,5.561,7.24,5.561c0.643,0,1.296-0.083,1.946-0.257
			c4.001-1.072,6.375-5.185,5.304-9.186l-7.832-29.231c1.726-1.012,3.364-2.23,4.844-3.71c7.51-7.51,8.981-18.791,4.444-27.796
			l37.819-37.819c3.391,1.709,7.101,2.578,10.817,2.578c6.148,0,12.299-2.341,16.979-7.021c0.597-0.597,1.157-1.222,1.683-1.869
			l54.763,14.673c0.57,5.454,2.967,10.509,6.898,14.44c4.681,4.682,10.831,7.022,16.98,7.022c0.333,0,0.666-0.034,0.999-0.048
			l14.11,52.66c-1.726,1.012-3.364,2.23-4.844,3.71c-7.51,7.51-8.981,18.791-4.443,27.796l-37.818,37.818
			c-9.005-4.538-20.287-3.066-27.797,4.444c-1.48,1.479-2.698,3.117-3.71,4.844l-52.625-14.101c0.014-0.335,0.025-0.67,0.025-1.008
			c0-6.415-2.498-12.444-7.033-16.979c-9.362-9.363-24.597-9.363-33.959,0c-4.536,4.536-7.033,10.565-7.033,16.98
			c0,3.826,0.895,7.513,2.576,10.831l-34.464,34.464c-2.929,2.929-2.929,7.678,0,10.606c1.464,1.464,3.384,2.197,5.303,2.197
			c1.919,0,3.839-0.732,5.303-2.197l34.478-34.478c3.392,1.709,7.101,2.579,10.817,2.579c6.149,0,12.299-2.34,16.98-7.022
			c0.597-0.597,1.157-1.222,1.683-1.869l54.783,14.679c0.558,5.275,2.843,10.401,6.878,14.435c4.034,4.034,9.16,6.32,14.435,6.877
			l12.218,45.6c0.898,3.351,3.928,5.561,7.24,5.561c0.643,0,1.296-0.083,1.946-0.257c4.001-1.072,6.375-5.185,5.304-9.186
			l-12.027-44.885c1.727-1.012,3.364-2.23,4.844-3.71c7.51-7.51,8.981-18.792,4.443-27.796l37.819-37.819
			c3.392,1.709,7.101,2.579,10.816,2.579c6.149,0,12.298-2.341,16.979-7.022c1.48-1.479,2.698-3.117,3.71-4.844l44.885,12.027
			c0.65,0.174,1.303,0.257,1.946,0.257c3.311,0,6.342-2.21,7.24-5.561c1.072-4.001-1.302-8.114-5.303-9.186l-45.601-12.219
			c-0.558-5.275-2.843-10.4-6.878-14.434c-4.034-4.034-9.159-6.32-14.434-6.877l-14.68-54.786c0.645-0.523,1.27-1.082,1.87-1.681
			c4.536-4.535,7.033-10.565,7.033-16.979c0-3.827-0.895-7.514-2.576-10.831l37.804-37.804c3.392,1.709,7.102,2.578,10.817,2.578
			c6.149,0,12.298-2.34,16.979-7.021c1.479-1.479,2.698-3.117,3.71-4.844l44.886,12.027c0.65,0.174,1.303,0.257,1.946,0.257
			c3.311,0,6.342-2.21,7.24-5.561C512.815,214.424,510.44,210.312,506.439,209.239z M403.365,95.89
			c1.757-1.757,4.065-2.636,6.373-2.636s4.616,0.879,6.374,2.636c1.702,1.703,2.64,3.966,2.64,6.373c0,2.408-0.938,4.671-2.64,6.373
			c-3.515,3.514-9.232,3.514-12.747,0c-1.702-1.702-2.64-3.965-2.64-6.373C400.725,99.856,401.663,97.593,403.365,95.89z
			 M306.063,68.646c1.757-1.757,4.065-2.636,6.374-2.636c2.308,0,4.616,0.879,6.373,2.636c3.513,3.513,3.513,9.231-0.001,12.746
			c-3.51,3.509-9.216,3.513-12.731,0.014c-0.005-0.005-0.009-0.01-0.014-0.015s-0.01-0.009-0.015-0.014
			C302.549,77.862,302.553,72.155,306.063,68.646z M81.391,194.262c-3.515,3.514-9.231,3.514-12.746,0
			c-3.514-3.515-3.514-9.233,0-12.747c1.757-1.757,4.065-2.635,6.373-2.635s4.616,0.878,6.373,2.635
			C84.905,185.029,84.905,190.747,81.391,194.262z M236.005,138.702c1.757-1.756,4.065-2.635,6.373-2.635s4.616,0.878,6.373,2.635
			c3.514,3.514,3.514,9.232,0,12.746c-3.515,3.514-9.231,3.514-12.746,0C232.491,147.934,232.491,142.216,236.005,138.702z
			 M138.704,111.458c1.757-1.757,4.065-2.636,6.374-2.636c2.308,0,4.616,0.879,6.373,2.636c3.513,3.514,3.513,9.231-0.001,12.746
			c-3.51,3.509-9.216,3.513-12.731,0.014c-0.005-0.005-0.009-0.01-0.014-0.015s-0.01-0.009-0.015-0.014
			C135.19,120.674,135.194,114.967,138.704,111.458z M108.637,291.564c-3.515,3.515-9.232,3.514-12.747,0
			c-3.514-3.514-3.514-9.232,0-12.747c1.757-1.757,4.065-2.636,6.374-2.636c2.308,0,4.616,0.879,6.373,2.636
			C112.151,282.331,112.151,288.049,108.637,291.564z M205.937,318.81c-3.515,3.514-9.231,3.514-12.746,0
			c-3.514-3.515-3.514-9.233,0-12.747c1.757-1.757,4.065-2.636,6.373-2.636s4.616,0.878,6.373,2.636
			C209.451,309.577,209.451,315.295,205.937,318.81z M252.644,225.399c-4.536,4.535-7.033,10.565-7.033,16.979
			c0,3.827,0.895,7.514,2.576,10.831l-37.804,37.804c-9.005-4.537-20.287-3.066-27.796,4.443c-1.479,1.479-2.697,3.117-3.709,4.843
			l-52.659-14.11c0.265-6.477-2.042-13.042-6.977-17.978c-4.935-4.935-11.501-7.242-17.979-6.975l-14.11-52.659
			c1.726-1.012,3.364-2.23,4.844-3.71c7.51-7.51,8.981-18.792,4.443-27.796l37.819-37.819c3.392,1.709,7.101,2.579,10.817,2.579
			c6.149,0,12.299-2.34,16.98-7.022c1.479-1.479,2.698-3.117,3.71-4.844l52.659,14.11c-0.268,6.479,2.039,13.045,6.974,17.98
			c4.034,4.034,9.16,6.32,14.435,6.877l14.68,54.786C253.869,224.241,253.244,224.8,252.644,225.399z M277.979,245.762
			c-0.033,0.075-0.068,0.149-0.099,0.226c-0.445,1.017-1.075,1.955-1.883,2.763c-3.512,3.511-9.222,3.514-12.737,0.01
			c-0.003-0.003-0.006-0.007-0.009-0.01c-0.003-0.003-0.007-0.006-0.011-0.01c-1.696-1.7-2.63-3.959-2.63-6.363
			c0-2.407,0.938-4.67,2.64-6.373c1.757-1.757,4.065-2.636,6.374-2.636c2.308,0,4.616,0.879,6.373,2.636
			c1.702,1.703,2.64,3.966,2.64,6.373C278.637,243.557,278.409,244.701,277.979,245.762z M373.298,275.998
			c-3.514,3.513-9.231,3.514-12.747,0c-1.702-1.704-2.639-3.967-2.639-6.374c0-2.408,0.938-4.671,2.64-6.373
			c1.757-1.757,4.065-2.636,6.373-2.636c2.303,0,4.605,0.875,6.361,2.624c0.004,0.004,0.007,0.009,0.011,0.013
			c0.003,0.003,0.007,0.006,0.011,0.01c1.696,1.7,2.63,3.959,2.63,6.363C375.938,272.032,375,274.295,373.298,275.998z
			 M235.167,413.12c-0.035,0.079-0.072,0.157-0.104,0.238c-0.445,1.014-1.073,1.949-1.879,2.756
			c-3.516,3.513-9.234,3.512-12.748-0.001c-1.702-1.703-2.64-3.966-2.64-6.373c0-2.408,0.938-4.671,2.64-6.373
			c1.757-1.757,4.065-2.636,6.374-2.636c2.308,0,4.616,0.879,6.373,2.636c1.702,1.702,2.64,3.965,2.64,6.373
			C235.823,410.918,235.595,412.06,235.167,413.12z M330.484,443.357c-3.514,3.514-9.231,3.514-12.747,0
			c-3.513-3.513-3.513-9.232,0.001-12.746c1.757-1.757,4.065-2.636,6.373-2.636c2.302,0,4.603,0.875,6.358,2.622
			c0.005,0.005,0.009,0.01,0.014,0.015s0.01,0.009,0.015,0.014C333.998,434.141,333.994,439.848,330.484,443.357z M387.797,360.553
			c1.757-1.757,4.065-2.635,6.373-2.635s4.616,0.878,6.373,2.635c3.514,3.514,3.514,9.232,0,12.746
			c-3.515,3.514-9.231,3.514-12.746,0C384.283,369.785,384.283,364.067,387.797,360.553z M443.356,205.938
			c-3.514,3.515-9.232,3.514-12.746,0.001c-3.514-3.514-3.514-9.232,0-12.747c1.757-1.757,4.065-2.635,6.373-2.635
			s4.616,0.878,6.373,2.635C446.87,196.706,446.87,202.424,443.356,205.938z"/>
	</g>
</g>
<g>
</g>
<g>
</g>
<g>
</g>
<g>
</g>
<g>
</g>
<g>
</g>
<g>
</g>
<g>
</g>
<g>
</g>
<g>
</g>
<g>
</g>
<g>
</g>
<g>
</g>
<g>
</g>
<g>
</g>
</svg>
