<?xml version="1.0" encoding="UTF-8"?>
<svg width="23px" height="21px" viewBox="0 0 23 21" version="1.1" xmlns="http://www.w3.org/2000/svg" xmlns:xlink="http://www.w3.org/1999/xlink">
    <!-- Generator: Sketch 55 (78076) - https://sketchapp.com -->
    <title>heart</title>
    <desc>Created with Sketch.</desc>
    <g id="Page-1" stroke="none" stroke-width="1" fill="none" fill-rule="evenodd">
        <g id="Startegy-marketplace:-Desktops---1140" transform="translate(-1247.000000, -784.000000)" fill="#FFFFFF" fill-rule="nonzero">
            <g id="Strategies" transform="translate(450.000000, 194.000000)">
                <g id="Strategy-Copy" transform="translate(0.000000, 570.000000)">
                    <g id="Like" transform="translate(777.000000, 0.000000)">
                        <g id="heart" transform="translate(20.000000, 20.000000)">
                            <path d="M11.5,21 C11.1725617,21 10.8568802,20.878263 10.6108627,20.6571193 C9.68171694,19.8233287 8.78591155,19.0397815 7.99556731,18.3486176 L7.99153139,18.3450159 C5.6743698,16.3185264 3.67341616,14.5684663 2.28118896,12.8445186 C0.724891674,10.9172555 0,9.08993929 0,7.09370392 C0,5.1541951 0.648033131,3.36487667 1.82460024,2.05512297 C3.01520539,0.72988199 4.64888762,0 6.42523193,0 C7.75288393,0 8.96875764,0.430761843 10.0389862,1.28021986 C10.5791016,1.70900077 11.0686798,2.23376668 11.5,2.84587351 C11.9314957,2.23376668 12.4208984,1.70900077 12.9611893,1.28021986 C14.0314178,0.430761843 15.2472916,0 16.5749435,0 C18.3511124,0 19.9849701,0.72988199 21.1755753,2.05512297 C22.3521423,3.36487667 23,5.1541951 23,7.09370392 C23,9.08993929 22.2752838,10.9172555 20.7189865,12.8443385 C19.3267593,14.5684663 17.3259811,16.3183463 15.0091706,18.3446558 C14.2174225,19.0369002 13.3202133,19.8217079 12.3889618,20.6574795 C12.1431198,20.878263 11.8272629,21 11.5,21 L11.5,21 Z M6.35695262,1.23529412 C4.9426146,1.23529412 3.64333711,1.81613963 2.6981332,2.87095805 C1.73888019,3.94169758 1.21052632,5.42181059 1.21052632,7.03880843 C1.21052632,8.74492778 1.82673172,10.2707911 3.20834772,11.9862435 C4.54372609,13.6444166 6.52998805,15.3862212 8.82977674,17.4030765 L8.83404482,17.4067365 C9.6380461,18.1118398 10.549461,18.9111887 11.4980438,19.7647059 C12.4523174,18.9095416 13.3651549,18.1089118 14.1707567,17.4027105 C16.4703676,15.3858552 18.4564517,13.6444166 19.7918301,11.9862435 C21.1732683,10.2707911 21.7894737,8.74492778 21.7894737,7.03880843 C21.7894737,5.42181059 21.2611198,3.94169758 20.3018668,2.87095805 C19.3568407,1.81613963 18.0573854,1.23529412 16.6432252,1.23529412 C15.6071466,1.23529412 14.6558962,1.57421213 13.8159719,2.24253225 C13.0674558,2.83838387 12.5460375,3.59161641 12.2403356,4.11865962 C12.0831277,4.3896843 11.8064132,4.55145729 11.5,4.55145729 C11.1935868,4.55145729 10.9168723,4.3896843 10.7596644,4.11865962 C10.4541403,3.59161641 9.93272212,2.83838387 9.18402813,2.24253225 C8.3441038,1.57421213 7.3928534,1.23529412 6.35695262,1.23529412 Z" id="Shape"></path>
                        </g>
                    </g>
                </g>
            </g>
        </g>
    </g>
</svg>