<?xml version="1.0" encoding="UTF-8"?>
<svg width="23px" height="21px" viewBox="0 0 23 21" version="1.1" xmlns="http://www.w3.org/2000/svg" xmlns:xlink="http://www.w3.org/1999/xlink">
    <!-- Generator: Sketch 55 (78076) - https://sketchapp.com -->
    <title>heart-fill</title>
    <desc>Created with Sketch.</desc>
    <g id="Page-1" stroke="none" stroke-width="1" fill="none" fill-rule="evenodd">
        <g id="Startegy-marketplace:-Desktops---1140" transform="translate(-1247.000000, -1069.000000)" fill="#FF5980" fill-rule="nonzero">
            <g id="Strategies" transform="translate(450.000000, 194.000000)">
                <g id="Strategy-Copy-2" transform="translate(0.000000, 855.000000)">
                    <g id="Like" transform="translate(777.000000, 0.000000)">
                        <g id="heart-fill" transform="translate(20.000000, 20.000000)">
                            <path d="M11.5,21 C11.1725617,21 10.8568802,20.878263 10.6108627,20.6571193 C9.68171694,19.8233287 8.78591155,19.0397815 7.99556731,18.3486176 L7.99153139,18.3450159 C5.6743698,16.3185264 3.67341616,14.5684663 2.28118896,12.8445186 C0.724891674,10.9172555 0,9.08993929 0,7.09370392 C0,5.1541951 0.648033131,3.36487667 1.82460024,2.05512297 C3.01520539,0.72988199 4.64888762,0 6.42523193,0 C7.75288393,0 8.96875764,0.430761843 10.0389862,1.28021986 C10.5791016,1.70900077 11.0686798,2.23376668 11.5,2.84587351 C11.9314957,2.23376668 12.4208984,1.70900077 12.9611893,1.28021986 C14.0314178,0.430761843 15.2472916,0 16.5749435,0 C18.3511124,0 19.9849701,0.72988199 21.1755753,2.05512297 C22.3521423,3.36487667 23,5.1541951 23,7.09370392 C23,9.08993929 22.2752838,10.9172555 20.7189865,12.8443385 C19.3267593,14.5684663 17.3259811,16.3183463 15.0091706,18.3446558 C14.2174225,19.0369002 13.3202133,19.8217079 12.3889618,20.6574795 C12.1431198,20.878263 11.8272629,21 11.5,21 L11.5,21 Z" id="Shape"></path>
                        </g>
                    </g>
                </g>
            </g>
        </g>
    </g>
</svg>