<?xml version="1.0" encoding="iso-8859-1"?>
<!-- Generator: Adobe Illustrator 19.0.0, SVG Export Plug-In . SVG Version: 6.00 Build 0)  -->
<svg version="1.1" id="Capa_1" xmlns="http://www.w3.org/2000/svg" xmlns:xlink="http://www.w3.org/1999/xlink" x="0px" y="0px"
	 viewBox="0 0 512.001 512.001" style="enable-background:new 0 0 512.001 512.001;" xml:space="preserve">
<g>
	<g>
		<path d="M357.4,0c-16.741,0-30.36,13.62-30.36,30.36c0,6.944,2.349,13.347,6.286,18.467L259.1,143.169
			c-4.112-2.084-8.757-3.266-13.673-3.266c-7.294,0-13.995,2.587-19.235,6.889l-42.625-33.785c2.123-4.143,3.329-8.831,3.329-13.797
			c0-16.741-13.62-30.36-30.36-30.36c-16.74,0-30.36,13.62-30.36,30.36c0,5.626,1.544,10.897,4.222,15.42l-46.359,41.82
			c-4.732-3.049-10.358-4.826-16.393-4.826c-16.741,0-30.36,13.62-30.36,30.36c0,16.74,13.62,30.36,30.36,30.36
			c16.74,0,30.36-13.62,30.36-30.36c0-5.275-1.355-10.239-3.731-14.566l46.716-42.142c4.549,2.726,9.866,4.296,15.544,4.296
			c6.339,0,12.229-1.956,17.103-5.291l43.651,34.598c-1.429,3.518-2.223,7.359-2.223,11.385c0,16.741,13.62,30.36,30.36,30.36
			c16.74,0,30.36-13.62,30.36-30.36c0-6.388-1.988-12.319-5.371-17.215l74.695-94.937c3.76,1.672,7.917,2.609,12.291,2.609
			c16.741,0,30.36-13.62,30.36-30.36C387.76,13.621,374.141,0,357.4,0z M67.646,197.344c-8.47,0-15.359-6.89-15.359-15.359
			c0-8.469,6.89-15.359,15.359-15.359c8.469,0,15.359,6.89,15.359,15.359C83.005,190.454,76.115,197.344,67.646,197.344z
			 M156.536,114.57c-8.469,0-15.359-6.89-15.359-15.359s6.889-15.359,15.359-15.359c8.469,0,15.359,6.89,15.359,15.359
			S165.005,114.57,156.536,114.57z M245.427,185.622c-8.469,0-15.359-6.89-15.359-15.359s6.889-15.359,15.359-15.359
			c8.469,0,15.359,6.89,15.359,15.359S253.895,185.622,245.427,185.622z M357.4,45.719c-8.469,0-15.359-6.89-15.359-15.359
			c0-8.469,6.889-15.359,15.359-15.359s15.359,6.89,15.359,15.359C372.759,38.828,365.869,45.719,357.4,45.719z"/>
	</g>
</g>
<g>
	<g>
		<path d="M459.616,264.06c-11.669-6.775-28.734-6.208-40.596,10.306l-28.299,37.148v-81.227c0-4.142-3.358-7.5-7.5-7.5
			c-4.142,0-7.5,3.358-7.5,7.5v103.451c0,7.157,9.128,10.241,13.467,4.545l41.833-54.915c0.046-0.061,0.092-0.123,0.137-0.186
			c6.813-9.538,15.277-9.431,20.926-6.15c5.624,3.266,9.95,10.529,6.157,18.757c-0.021,0.045-0.042,0.091-0.062,0.137
			l-43.345,99.193c-7.388,15.311-16.278,22.527-28.419,34.553c-10.769,10.665-11.269,29.019-10.935,44.331
			c0.169,7.662,0.361,16.348-3.358,20.149c-1.848,1.89-5.099,2.848-9.661,2.848h-36.099c-4.142,0-7.5,3.358-7.5,7.5
			c0,4.142,3.358,7.5,7.5,7.5h36.099c8.75,0,15.608-2.476,20.384-7.359c8.131-8.313,7.854-20.875,7.631-30.969
			c-0.211-9.599-0.326-26.588,6.493-33.341c12.15-12.034,23.403-21.447,31.491-38.94c0.023-0.05,0.046-0.101,0.068-0.152
			l43.367-99.242C479.215,286.021,471.266,270.826,459.616,264.06z"/>
	</g>
</g>
<g>
	<g>
		<path d="M361.282,87.795c-0.007,0-0.011,0-0.018,0c-16.27,0-29.516,13.231-29.528,29.502c-0.01,14.365-0.01,10.345-0.009,108.945
			c-4.356-2.542-9.421-3.999-14.818-3.999c-10.256,0-19.306,5.262-24.594,13.228c-5.189-4.54-11.979-7.293-19.398-7.293
			c-9.859,0-18.603,4.861-23.961,12.313c-5.264-4.877-12.306-7.862-20.03-7.862c-16.264,0-29.497,13.232-29.497,29.497
			c0,62.378,0.007,117.254,0,127.255c-0.04,42.554,31.555,41.565,31.538,68.668l-0.012,25.002c0,16.412,8.926,27.218,23.876,28.906
			c0.28,0.032,0.561,0.047,0.842,0.047h35.685c4.142,0,7.5-3.358,7.5-7.5c0-4.142-3.358-7.5-7.5-7.5h-35.23
			c-7.031-0.933-10.173-5.252-10.173-13.949l0.012-24.997c0.023-35.965-31.571-32.645-31.538-68.663c0.085-114.864,0-86.6,0-127.267
			c0-7.992,6.502-14.496,14.496-14.496c7.994,0,14.496,6.502,14.496,14.496v43.216c0,4.142,3.358,7.5,7.5,7.5
			c4.142,0,7.5-3.358,7.5-7.5v-43.216v-4.45c0-7.992,6.502-14.496,14.496-14.496s14.496,6.502,14.496,14.496v47.665
			c0,4.142,3.358,7.5,7.5,7.5c4.142,0,7.5-3.358,7.5-7.5c0-5.055,0-46.266,0-53.598c0-7.993,6.502-14.496,14.496-14.496
			c7.993-0.001,14.817,6.502,14.817,14.496c0,36.763,0,20.198,0,53.598c0,4.142,3.358,7.5,7.5,7.5c4.142,0,7.5-3.358,7.5-7.5
			c0-181.547-0.004-169.694,0.009-188.03c0.006-8.003,6.521-14.512,14.525-14.512c0.003,0,0.006,0,0.009,0
			c7.972,0.007,14.455,6.526,14.448,14.539v77.95c0,4.142,3.358,7.5,7.5,7.5c4.142,0,7.5-3.358,7.5-7.5v-77.944
			C390.732,101.063,377.528,87.809,361.282,87.795z"/>
	</g>
</g>
<g>
</g>
<g>
</g>
<g>
</g>
<g>
</g>
<g>
</g>
<g>
</g>
<g>
</g>
<g>
</g>
<g>
</g>
<g>
</g>
<g>
</g>
<g>
</g>
<g>
</g>
<g>
</g>
<g>
</g>
</svg>
