<svg xmlns="http://www.w3.org/2000/svg" width="24" height="22" viewBox="0 0 24 22">
    <path fill="#333" fill-rule="nonzero" d="M23.723 13.658v8.093h-4.928V14.2c0-1.897-.713-3.192-2.497-3.192-1.362 0-2.172.873-2.529 1.716-.13.302-.163.722-.163 1.144v7.882h-4.93s.066-12.788 0-14.113h4.93v2c-.01.015-.024.031-.033.046h.032v-.046c.655-.96 1.825-2.332 4.443-2.332 3.244 0 5.675 2.017 5.675 6.352zM3.52.835C1.832.835.729 1.888.729 3.273c0 1.354 1.071 2.44 2.724 2.44h.033c1.72 0 2.789-1.085 2.789-2.44C6.242 1.888 5.205.835 3.519.835zM1.022 21.75H5.95V7.638H1.022V21.75z"/>
</svg>
