<svg height="512pt" viewBox="0 0 512 512" width="512pt" xmlns="http://www.w3.org/2000/svg"><path d="m494.933594 281.601562-58.027344-.0625c7.476562-12.945312 8.894531-28.523437 3.875-42.605468h2.953125c9.425781 0 17.066406-7.640625 17.066406-17.066406v-179.199219c-.027343-23.554688-19.113281-42.6406252-42.667969-42.667969h-375.464843c-23.554688.0273438-42.6406252 19.113281-42.667969 42.667969v366.933593c.0273438 23.550782 19.113281 42.636719 42.667969 42.664063h179.199219c9.425781 0 17.066406-7.640625 17.066406-17.066406l.324218-53.980469c5.382813 1.871094 11.042969 2.8125 16.742188 2.78125 17.359375-.015625 33.523438-8.851562 42.90625-23.457031 4.308594-1.648438 5.757812-2.039063 5.605469-2.039063 17.109375-1.144531 32.480469 10.394532 36.15625 27.144532 2.085937 10.113281-.535157 20.632812-7.125 28.585937-9.160157 10.816406-23.964844 15.007813-37.4375 10.589844-5.371094-1.855469-11.308594-1.015625-15.957031 2.253906-4.464844 3.144531-7.109376 8.273437-7.082032 13.738281v54.117188c0 9.425781 7.640625 17.066406 17.066406 17.066406h179.199219c23.554688-.027344 42.640625-19.113281 42.667969-42.667969v-170.664062c0-9.425781-7.640625-17.066407-17.066406-17.066407zm-51.199219-238.933593v179.199219h-13.046875c-9.847656-11.089844-24.050781-17.324219-38.878906-17.066407 1.796875-10.917969.09375-22.121093-4.863282-32.007812-6.875-13.523438-19.449218-23.25-34.261718-26.507813-15.191406-3.429687-31.121094.234375-43.289063 9.957032-12.167969 9.722656-19.253906 24.449218-19.261719 40.023437-.039062 9.046875 2.46875 17.917969 7.246094 25.601563h-58.394531l.324219-53.972657c25.019531 8.628907 52.484375-3.292969 63.265625-27.460937 2.152343-4.589844 3.59375-9.484375 4.265625-14.507813 2.253906-17.640625-4.804688-35.1875-18.652344-46.351562-13.847656-11.160157-32.492188-14.335938-49.253906-8.390625v-54.117188h179.199218c14.140626 0 25.601563 11.460938 25.601563 25.601563zm-95.15625 238.933593h-58.445313c-4.550781-.003906-8.910156 1.820313-12.109374 5.058594-12.230469-5.863281-26.289063-6.640625-39.089844-2.160156v-45.566406h58.445312c5.984375.0625 11.53125-3.117188 14.507813-8.3125 3.023437-5.378906 2.972656-11.953125-.128907-17.289063-6.824218-11.777343-5.996093-26.488281 2.109376-37.425781 8.101562-10.9375 21.933593-16.015625 35.1875-12.917969 9.777343 2.128907 18.082031 8.539063 22.625 17.457031 4.4375 8.890626 4.847656 19.257813 1.132812 28.476563-19.074219 7.851563-31.511719 26.453125-31.480469 47.078125-.039062 9.046875 2.472657 17.917969 7.246094 25.601562zm-331.511719-238.933593c0-14.140625 11.460938-25.601563 25.601563-25.601563h179.199219v54.117188c-.039063 5.457031 2.589843 10.585937 7.039062 13.738281 4.644531 3.285156 10.585938 4.125 15.957031 2.253906 13.085938-4.316406 27.488281-.511719 36.738281 9.703125 4.867188 5.453125 7.828126 12.34375 8.4375 19.625.207032 2.457032.160157 4.929688-.144531 7.375-2.171875 15.59375-14.601562 27.753906-30.242187 29.585938-4.992188.519531-10.039063-.0625-14.78125-1.707032-5.359375-1.867187-11.296875-1.027343-15.929688 2.25-4.460937 3.144532-7.105468 8.273438-7.074218 13.730469v54.171875l-58.273438.289063c.449219-.777344.722656-1.628907 1.140625-2.421875 7.011719-13.207032 7.847656-28.832032 2.28125-42.707032-5.566406-13.878906-16.964844-24.597656-31.15625-29.296874-2.050781-.703126-4.148437-1.273438-6.273437-1.707032-1.878907-.355468-3.777344-.609375-5.683594-.761718h-.101563c-1.425781-.117188-2.839843-.203126-4.265625-.203126-.257812 0-.503906.058594-.769531.066407-2.390625.039062-4.777344.242187-7.140625.605469-.777344.121093-1.527344.292968-2.289062.445312-1.996094.398438-3.96875.914062-5.902344 1.542969-.53125.171875-1.066406.300781-1.589844.488281-2.320312.867188-4.578125 1.898438-6.757812 3.089844-.585938.324218-1.175782.664062-1.757813 1.015625-2.203125 1.277343-4.304687 2.726562-6.289063 4.324219l-.136718.09375c-1.472656 1.21875-2.878906 2.515624-4.214844 3.882812-9.265625 9.535156-14.441406 22.3125-14.421875 35.609375-.007813 8.054687 2.023437 15.980469 5.898437 23.042969.453126.851562.851563 1.703125 1.339844 2.558594h-58.4375zm227.839844 322.429687c-5.363281-1.878906-11.300781-1.046875-15.941406 2.238282-4.476563 3.148437-7.128906 8.289062-7.097656 13.761718v54.101563h-179.199219c-14.140625 0-25.601563-11.460938-25.601563-25.597657v-170.667968h58.453125c1.476563 0 2.941407-.191406 4.371094-.5625 4.261719-1.128906 7.894531-3.921875 10.085937-7.75 2.375-4.207032 2.871094-9.21875 1.371094-13.816406-.359375-1.253907-.855468-2.464844-1.472656-3.617188-.742188-1.253906-1.394531-2.5625-1.957031-3.90625-4.820313-11.683594-2.796875-25.074219 5.269531-34.804688 8.0625-9.730468 20.84375-14.210937 33.214844-11.644531 1.632812.316407 3.238281.757813 4.804687 1.316407 9.292969 3.375 16.65625 10.632812 20.164063 19.875 3.511718 9.246093 2.820312 19.558593-1.894532 28.25-.21875.417968-.355468.855468-.605468 1.273437-.6875 1.195313-1.222656 2.46875-1.59375 3.796875 0 .085938-.078125.164062-.101563.246094-.070312.25 0 .503906-.105469.753906-.917968 4.039062-.285156 8.28125 1.777344 11.878906.1875.332032.46875.570313.671875.851563 3.152344 4.859375 8.53125 7.8125 14.320313 7.859375h58.027344v45.566406c-.039063 5.46875 2.59375 10.605469 7.054687 13.765625 4.660156 3.292969 10.625 4.121094 16 2.21875 9.359375-3.078125 19.582031-2.074219 28.160156 2.765625v42.351562c.035157 4.792969 2.101563 9.347657 5.683594 12.535157-6.238281 5.644531-14.351563 8.777343-22.765625 8.796875-3.773438.023437-7.527344-.597656-11.09375-1.835938zm250.027344 104.234375c0 14.140625-11.460938 25.601563-25.601563 25.601563h-179.199219l.402344-53.957032c19.667969 6.738282 41.457032.914063 55.140625-14.738281 13.679688-15.65625 16.539063-38.027343 7.234375-56.617187-9.308594-18.589844-28.929687-29.707032-49.660156-28.132813-4.550781.722657-8.96875 2.109375-13.117188 4.113281v-46.933593h58.445313c5.984375.058593 11.535156-3.121094 14.507813-8.3125 3.023437-5.378907 2.972656-11.957031-.128907-17.289063-5.132812-8.929687-5.960937-19.695312-2.25-29.304687 3.707031-9.605469 11.554688-17.023438 21.355469-20.1875h.113281c3.335938-1.121094 6.835938-1.699219 10.359375-1.707031 10.734375.035156 20.835938 5.085937 27.304688 13.652343 4.476562 5.886719 6.875 13.085938 6.828125 20.480469-.003907 5.972656-1.578125 11.839844-4.558594 17.015625-3.105469 5.355469-3.136719 11.953125-.085937 17.339844 2.972656 5.191406 8.523437 8.371093 14.507812 8.3125h58.402344zm0 0"/><path d="m42.667969 256c-4.714844 0-8.535157 3.820312-8.535157 8.535156v136.53125c0 4.714844 3.820313 8.535156 8.535157 8.535156 4.710937 0 8.53125-3.820312 8.53125-8.535156v-136.53125c0-4.714844-3.820313-8.535156-8.53125-8.535156zm0 0"/><path d="m42.667969 42.667969c-4.714844 0-8.535157 3.820312-8.535157 8.53125v119.46875c0 4.710937 3.820313 8.53125 8.535157 8.53125 4.710937 0 8.53125-3.820313 8.53125-8.53125v-119.46875c0-4.710938-3.820313-8.53125-8.53125-8.53125zm0 0"/></svg>