<?xml version="1.0" encoding="UTF-8"?>
<svg width="17px" height="19px" viewBox="0 0 17 19" version="1.1" xmlns="http://www.w3.org/2000/svg" xmlns:xlink="http://www.w3.org/1999/xlink">
    <!-- Generator: Sketch 55 (78076) - https://sketchapp.com -->
    <title>send-invoice</title>
    <desc>Created with Sketch.</desc>
    <g id="Page-1" stroke="none" stroke-width="1" fill="none" fill-rule="evenodd">
        <g id="My-Subscribers:-Desktops---960px" transform="translate(-408.000000, -422.000000)" fill="#FFFFFF">
            <g id="My-subscribers" transform="translate(32.000000, 193.000000)">
                <g id="Subscribers" transform="translate(0.000000, 78.000000)">
                    <g id="Subscriber-Copy-3" transform="translate(246.000000, 0.000000)">
                        <g id="Group" transform="translate(0.000000, 105.000000)">
                            <g id="Buttons" transform="translate(0.000000, 38.000000)">
                                <g id="Send-invoice" transform="translate(120.000000, 0.000000)">
                                    <g id="send-invoice" transform="translate(10.500000, 8.166667)">
                                        <path d="M1,0 L15.3333333,0 C15.8856181,8.7960173e-16 16.3333333,0.44771525 16.3333333,1 L16.3333333,17.6666667 C16.3333333,18.2189514 15.8856181,18.6666667 15.3333333,18.6666667 L1,18.6666667 C0.44771525,18.6666667 6.76353751e-17,18.2189514 0,17.6666667 L-2.22044605e-16,1 C-2.8967998e-16,0.44771525 0.44771525,1.01453063e-16 1,0 Z M8.87610703,8.67539474 L7.4572263,8.67539474 C6.64887846,8.67539474 5.99127621,8.02219298 5.99127621,7.21929825 C5.99127621,6.41635965 6.64892261,5.76315789 7.4572263,5.76315789 L10.2949436,5.76315789 C10.6607246,5.76315789 10.9572705,5.46859649 10.9572705,5.10526316 C10.9572705,4.74192982 10.6607246,4.44736842 10.2949436,4.44736842 L8.82899352,4.44736842 L8.82899352,2.99122807 C8.82899352,2.62789474 8.53244771,2.33333333 8.16666667,2.33333333 C7.80088563,2.33333333 7.50433982,2.62789474 7.50433982,2.99122807 L7.50433982,4.44736842 L7.45727046,4.44736842 C5.91850857,4.44736842 4.66666667,5.69087719 4.66666667,7.21929825 C4.66666667,8.7477193 5.91855272,9.99118421 7.45727046,9.99118421 L8.87615119,9.99118421 C9.68445487,9.99118421 10.3420571,10.6444298 10.3420571,11.4473246 C10.3420571,12.2502193 9.68445487,12.9034649 8.87615119,12.9034649 L6.03843388,12.9034649 C5.67265284,12.9034649 5.37610703,13.1980263 5.37610703,13.5613596 C5.37610703,13.924693 5.67265284,14.2192544 6.03843388,14.2192544 L7.50433982,14.2192544 L7.50433982,15.6754386 C7.50433982,16.0387719 7.80088563,16.3333333 8.16666667,16.3333333 C8.53244771,16.3333333 8.82899352,16.0387719 8.82899352,15.6754386 L8.82899352,14.2192544 L8.87610703,14.2192544 C10.4148248,14.2192544 11.6666667,12.9757456 11.6666667,11.4473246 C11.6666667,9.91890351 10.4148248,8.67539474 8.87610703,8.67539474 Z" id="Combined-Shape"></path>
                                    </g>
                                </g>
                            </g>
                        </g>
                    </g>
                </g>
            </g>
        </g>
    </g>
</svg>