<?xml version="1.0" encoding="UTF-8"?>
<svg width="23px" height="23px" viewBox="0 0 23 23" version="1.1" xmlns="http://www.w3.org/2000/svg" xmlns:xlink="http://www.w3.org/1999/xlink">
    <!-- Generator: Sketch 55 (78076) - https://sketchapp.com -->
    <title>share</title>
    <desc>Created with Sketch.</desc>
    <g id="Page-1" stroke="none" stroke-width="1" fill="none" fill-rule="evenodd">
        <g id="Startegy-profile:-Desktops---1140" transform="translate(-1198.000000, -293.000000)" fill="#B3C5DC" fill-rule="nonzero" stroke="#B3C5DC">
            <g id="Strategies" transform="translate(150.000000, 117.000000)">
                <g id="Strategy">
                    <g id="Share" transform="translate(1049.000000, 177.000000)">
                        <g id="share">
                            <path d="M17.5,0 C15.5697561,0 14,1.56975613 14,3.5 C14,5.43024387 15.5697561,7 17.5,7 C19.4302439,7 21,5.43028488 21,3.5 C21,1.56971512 19.4302439,0 17.5,0 Z M17.5,6 C16.1216797,6 15,4.87832031 15,3.5 C15,2.12167969 16.1216797,1 17.5,1 C18.8783203,1 20,2.12167969 20,3.5 C20,4.87832031 18.8783203,6 17.5,6 Z" id="Shape" stroke-width="0.5"></path>
                            <path d="M17.5,14 C15.5697561,14 14,15.5697469 14,17.4999795 C14,19.4302121 15.5697151,21 17.5,21 C19.4302849,21 21,19.4302531 21,17.5000205 C21,15.5697879 19.4302439,14 17.5,14 Z M17.5,20 C16.1216797,20 15,18.8783203 15,17.5 C15,16.1216797 16.1216797,15 17.5,15 C18.8783203,15 20,16.1216797 20,17.5 C20,18.8783203 18.8783203,20 17.5,20 Z" id="Shape" stroke-width="0.5"></path>
                            <path d="M3.5,7 C1.56975613,7 0,8.56975613 0,10.5 C0,12.4302439 1.56975613,14 3.5,14 C5.43024387,14 7,12.4302439 7,10.5 C7,8.56975613 5.43028488,7 3.5,7 Z M3.5,13 C2.12167969,13 1,11.8783203 1,10.5 C1,9.12167969 2.12167969,8 3.5,8 C4.87832031,8 6,9.12167969 6,10.5 C6,11.8783203 4.87835938,13 3.5,13 Z" id="Shape" stroke-width="0.5"></path>
                            <path d="M14.9559108,5.1883619 C14.8511314,5.01930865 14.6013815,4.95253086 14.3935121,5.03566761 L6.23183557,8.35449198 C6.02483041,8.43900263 5.94099116,8.64348966 6.04408122,8.81187194 C6.11782362,8.93114539 6.2653477,9 6.4187256,9 C6.48158539,9 6.54527022,8.98773078 6.60647995,8.96456623 L14.7681957,5.64574186 C14.9752009,5.56119926 15.0590008,5.35671224 14.9559108,5.1883619 Z" id="Path"></path>
                            <path d="M14.7681586,15.3538075 L6.60648393,12.0350779 C6.40030484,11.9532854 6.1480419,12.0187194 6.04408804,12.1877678 C5.9409985,12.3561134 6.02479804,12.5605945 6.23184144,12.6451347 L14.3935161,15.9638643 C14.4546862,15.9884021 14.51841,16 14.5812695,16 C14.7346466,16 14.882995,15.9304764 14.955912,15.8112064 C15.0590015,15.6427969 14.975202,15.4383157 14.7681586,15.3538075 Z" id="Path"></path>
                        </g>
                    </g>
                </g>
            </g>
        </g>
    </g>
</svg>