<svg xmlns="http://www.w3.org/2000/svg" width="20" height="20" viewBox="0 0 20 20">
    <path fill="#DADADA" fill-rule="evenodd" d="M10.92.628l2.246 4.78c.156.332.458.562.807.615l5.023.767c.88.134 1.231 1.27.595 1.92l-3.635 3.72a1.162 1.162 0 0 0-.308.997l.858 5.254c.15.92-.77 1.621-1.556 1.187l-4.493-2.48a1.029 1.029 0 0 0-.998 0l-4.493 2.48c-.787.435-1.706-.267-1.556-1.187l.858-5.254a1.162 1.162 0 0 0-.308-.996L.325 8.71C-.311 8.058.04 6.923.92 6.79l5.023-.767c.349-.053.651-.283.807-.616L8.996.627a1.05 1.05 0 0 1 1.923 0z"/>
</svg>
