<svg xmlns="http://www.w3.org/2000/svg" width="15" height="15" viewBox="0 0 15 15">
    <defs>
        <linearGradient id="a" x1="1.463%" x2="98.223%" y1="1.463%" y2="98.223%">
            <stop offset="0%" stop-color="#FF5980"/>
            <stop offset="100%" stop-color="#FFA882"/>
        </linearGradient>
    </defs>
    <path fill="url(#a)" fill-rule="evenodd" d="M8.224.47l1.692 3.585c.118.25.345.423.608.462l3.783.575c.663.101.928.952.448 1.44l-2.737 2.791a.869.869 0 0 0-.232.748l.646 3.94c.113.69-.58 1.216-1.172.89l-3.384-1.86a.778.778 0 0 0-.752 0l-3.384 1.86c-.592.326-1.285-.2-1.172-.89l.646-3.94a.869.869 0 0 0-.232-.748L.245 6.533c-.48-.489-.215-1.34.448-1.44l3.783-.576a.811.811 0 0 0 .608-.462L6.776.471a.792.792 0 0 1 1.448 0z"/>
</svg>
