<svg height="511pt" viewBox="0 -27 511.99949 511" width="511pt" xmlns="http://www.w3.org/2000/svg"><path d="m505.707031 204.960938-65.703125-113.785157c-2.101562-3.636719-6.753906-4.882812-10.394531-2.785156-3.640625 2.101563-4.886719 6.753906-2.785156 10.394531l65.703125 113.785156c5.683594 9.847657 5.683594 22.074219 0 31.914063l-104.453125 180.910156c-5.675781 9.84375-16.261719 15.953125-27.625 15.953125h-208.898438c-11.363281 0-21.953125-6.113281-27.636719-15.953125l-104.445312-180.910156c-5.679688-9.839844-5.679688-22.066406 0-31.914063l104.445312-180.90625c5.679688-9.835937 16.269532-15.949218 27.636719-15.949218h208.898438c11.367187 0 21.953125 6.109375 27.625 15.949218l23.566406 40.808594c2.097656 3.640625 6.753906 4.886719 10.390625 2.785156 3.640625-2.101562 4.886719-6.753906 2.785156-10.394531l-23.5625-40.804687c-8.382812-14.53125-24.015625-23.558594-40.804687-23.558594h-208.898438c-16.78125 0-32.421875 9.023438-40.8125 23.554688l-104.445312 180.910156c-8.390625 14.539062-8.390625 32.597656 0 47.128906l104.445312 180.910156c8.394531 14.535156 24.03125 23.5625 40.8125 23.5625h208.898438c16.785156 0 32.417969-9.03125 40.800781-23.566406l104.453125-180.90625c8.394531-14.53125 8.394531-32.589844.003906-47.132812zm0 0"/><path d="m201.6875 415.988281h158.144531c2.71875 0 5.230469-1.453125 6.589844-3.804687l103.835937-179.851563c1.359376-2.351562 1.359376-5.253906 0-7.605469l-103.835937-179.851562c-1.359375-2.351562-3.871094-3.804688-6.589844-3.804688h-207.671875c-2.71875 0-5.230468 1.453126-6.589844 3.804688l-103.835937 179.851562c-1.359375 2.351563-1.359375 5.253907 0 7.605469l103.835937 179.851563c1.359376 2.351562 3.871094 3.804687 6.589844 3.804687h19.089844c4.203125 0 7.609375-3.40625 7.609375-7.609375s-3.40625-7.609375-7.609375-7.609375h-14.699219l-99.441406-172.242187 99.441406-172.242188h198.890625l99.441406 172.242188-99.441406 172.242187h-153.753906c-4.203125 0-7.609375 3.40625-7.609375 7.609375 0 4.199219 3.40625 7.609375 7.609375 7.609375zm0 0"/><path d="m155.183594 260.824219c-7.875 0-12.148438-3.589844-15.578125-6.46875-2.195313-1.847657-3.929688-3.300781-5.996094-3.300781-4.0625 0-7.359375 5.449218-7.359375 9.007812 0 3.671875 3.171875 7.6875 8.488281 10.738281 5.753907 3.304688 13.195313 5.125 20.953125 5.125 8.914063 0 16.433594-2.417969 21.75-6.996093 5.609375-4.832032 8.578125-11.976563 8.578125-20.667969 0-19.507813-14.386719-25.613281-25.945312-30.519531-7.933594-3.363282-14.789063-6.273438-14.789063-12.625 0-6.039063 5.3125-9.644532 14.210938-9.644532 6.601562 0 10.273437 1.886719 12.957031 3.261719 1.699219.871094 3.039063 1.5625 4.554687 1.5625 2.597657 0 4.21875-1.820313 5.121094-3.347656 1.183594-2 1.605469-4.234375 1.605469-5.535157 0-8.113281-15.234375-10.277343-24.238281-10.277343-8.160156 0-15.601563 1.996093-20.960938 5.621093-6.636718 4.488282-10 11.179688-10 19.882813 0 16.832031 12.699219 22.472656 23.902344 27.449219 9.03125 4.007812 16.828125 7.472656 16.828125 15.824218 0 5.273438-3.699219 10.910157-14.082031 10.910157zm0 0"/><path d="m223.191406 274.78125c4.164063 0 8.375-1.832031 8.375-5.328125v-72.585937h18.402344c3.496094 0 5.328125-3.828126 5.328125-7.613282 0-3.605468-1.667969-7.484375-5.328125-7.484375h-53.675781c-3.664063 0-5.332031 3.878907-5.332031 7.484375 0 4.484375 2.191406 7.613282 5.332031 7.613282h18.523437v72.585937c0 2.566406 2.621094 5.328125 8.375 5.328125zm0 0"/><path d="m291.332031 275.542969c9.019531 0 16.175781-2.226563 21.273438-6.613281 5.757812-4.953126 8.675781-12.550782 8.675781-22.570313v-35.402344c0-10.023437-2.917969-17.621093-8.675781-22.574219-5.097657-4.386718-12.253907-6.613281-21.273438-6.613281-9.007812 0-16.144531 2.222657-21.210937 6.613281-5.710938 4.949219-8.609375 12.542969-8.609375 22.574219v35.402344c0 10.027344 2.898437 17.625 8.609375 22.570313 5.066406 4.386718 12.203125 6.613281 21.210937 6.613281zm13.195313-29.1875c0 9.464843-4.5625 14.46875-13.195313 14.46875-8.671875 0-13.070312-4.867188-13.070312-14.46875v-35.402344c0-9.597656 4.398437-14.464844 13.070312-14.464844 8.632813 0 13.195313 5 13.195313 14.464844zm0 0"/><path d="m351.855469 269.453125v-29.3125h14.085937c19.3125 0 29.945313-10.277344 29.945313-28.933594v-.761719c0-9.835937-2.828125-17.296874-8.402344-22.175781-4.933594-4.3125-11.839844-6.5-20.527344-6.5h-25.507812c-4.121094 0-6.34375 2.679688-6.34375 5.203125v82.480469c0 2.566406 2.621093 5.328125 8.375 5.328125 4.164062 0 8.375-1.832031 8.375-5.328125zm27.28125-56.976563c0 4.789063-1.1875 8.460938-3.53125 10.921876-2.246094 2.351562-5.496094 3.546874-9.664063 3.546874h-14.085937v-30.457031h14.085937c8.632813 0 13.195313 5.003907 13.195313 14.46875zm0 0"/></svg>