<svg xmlns="http://www.w3.org/2000/svg" width="27" height="21" viewBox="0 0 27 21">
    <path fill="#333" fill-rule="evenodd" d="M27 2.485c-.994.421-2.06.707-3.18.835A5.373 5.373 0 0 0 26.254.388a11.471 11.471 0 0 1-3.52 1.287A5.64 5.64 0 0 0 18.693 0c-3.059 0-5.539 2.375-5.539 5.302 0 .415.05.82.144 1.209C8.694 6.289 4.613 4.178 1.88.969a5.093 5.093 0 0 0-.749 2.666c0 1.84.979 3.464 2.463 4.413a5.727 5.727 0 0 1-2.508-.665v.066c0 2.569 1.91 4.712 4.442 5.2-.464.12-.953.186-1.46.186-.357 0-.703-.034-1.042-.098.705 2.108 2.75 3.641 5.173 3.683-1.895 1.422-4.284 2.267-6.879 2.267-.447 0-.887-.026-1.321-.073A16.164 16.164 0 0 0 8.49 21c10.189 0 15.758-8.08 15.758-15.089l-.018-.686A10.815 10.815 0 0 0 27 2.485z"/>
</svg>
