<?xml version="1.0" encoding="UTF-8"?>
<svg width="20px" height="20px" viewBox="0 0 20 20" version="1.1" xmlns="http://www.w3.org/2000/svg" xmlns:xlink="http://www.w3.org/1999/xlink">
    <!-- Generator: Sketch 55 (78076) - https://sketchapp.com -->
    <title>wallet1</title>
    <desc>Created with Sketch.</desc>
    <g id="Page-1" stroke="none" stroke-width="1" fill="none" fill-rule="evenodd" opacity="0.696101">
        <g id="Account-Profile:-Desktops---1140-" transform="translate(-167.000000, -179.000000)" fill="#333333" fill-rule="nonzero">
            <g id="Profile" transform="translate(150.000000, 117.000000)">
                <g id="Sidebar-menu" transform="translate(0.000000, 2.000000)">
                    <g id="Wallet" transform="translate(17.000000, 60.000000)">
                        <g id="wallet1">
                            <path d="M20,9.31682175 L19.0306924,9.31682175 L19.0306924,4.90271026 C19.0306924,3.8444678 18.1610485,2.98355212 17.0920773,2.98355212 L15.7792558,2.98355212 L14.4357872,0.592278933 C14.2310303,0.22683023 13.8413646,0 13.4187593,0 C13.2217848,0 13.0263789,0.0502872705 12.8538377,0.145068622 L7.69787189,2.9834924 L1.93861515,2.9834924 C0.869643908,2.9834924 0,3.84440808 0,4.90265053 L0,18.0808419 C0,19.1390843 0.869643908,20 1.93861515,20 L17.0920773,20 C18.1610485,20 19.0306924,19.1390843 19.0306924,18.0808419 L19.0306924,14.2106332 L20,14.2106332 L20,9.31682175 Z M17.1523592,3.63636364 C17.6866866,3.63636364 18.1231863,4.03516495 18.1818182,4.54545455 L16.87788,4.54545455 L16.3636364,3.63636364 L17.1523592,3.63636364 Z M12.9950019,0.951122831 C13.1626804,0.859474964 13.3883286,0.923574241 13.4809022,1.08637122 L15.4545455,4.54545455 L6.36363636,4.54545455 L12.9950019,0.951122831 Z M18.1818182,17.9413605 C18.1818182,18.5751296 17.6660943,19.0909091 17.0323935,19.0909091 L2.05851558,19.0909091 C1.42481483,19.0909091 0.909090909,18.5751296 0.909090909,17.9413605 L0.909090909,4.78591224 C0.909090909,4.15214316 1.42481483,3.63636364 2.05851558,3.63636364 L6.37179412,3.63636364 L4.53430038,4.65832373 L2.29798651,4.65832373 C2.08611704,4.65832373 1.91484495,4.82997201 1.91484495,5.0415066 C1.91484495,5.25304119 2.08611704,5.42468946 2.29798651,5.42468946 L3.15619498,5.42468946 L17.1554376,5.42468946 L18.1818182,5.42468946 L18.1818182,9.1927835 L15.3800024,9.1927835 C14.0788591,9.1927835 13.0199291,10.2518873 13.0199291,11.5531113 L13.0199291,11.7179031 C13.0199291,13.0191867 14.0789188,14.0782309 15.3800024,14.0782309 L18.1818182,14.0782309 L18.1818182,17.9413605 Z M19.0909091,13.6363636 L18.8957525,13.6363636 L15.2602999,13.6363636 C14.3648147,13.6363636 13.6363636,12.8609302 13.6363636,11.9075455 L13.6363636,11.7288182 C13.6363636,10.7754981 14.364754,10 15.2602999,10 L18.8957525,10 L19.0909091,10 L19.0909091,13.6363636 Z M16.3636364,11.8181818 C16.3636364,12.3205202 15.9568198,12.7272727 15.4545455,12.7272727 C14.9522071,12.7272727 14.5454545,12.3204561 14.5454545,11.8181818 C14.5454545,11.3159075 14.9522711,10.9090909 15.4545455,10.9090909 C15.9568838,10.9090268 16.3636364,11.3162278 16.3636364,11.8181818 Z" id="Shape"></path>
                        </g>
                    </g>
                </g>
            </g>
        </g>
    </g>
</svg>