<svg xmlns="http://www.w3.org/2000/svg" width="19" height="19" viewBox="0 0 19 19">
    <g fill="#333" fill-rule="nonzero">
        <path d="M4.963 3.66L12 1.873l-.373-.7C11.384.718 10.79.529 10.3.756L4 3.66h.963zM14.617 2.66c-.096 0-.191.006-.286.02l-1.809.241L7 3.66h9l-.338-.608c-.13-.237-.568-.392-1.045-.392zM16.93 4.66H1.074A1.073 1.073 0 0 0 0 5.725v11.87c0 .588.48 1.065 1.073 1.065h15.854A1.07 1.07 0 0 0 18 17.595v-2.972h-6.365a1.818 1.818 0 0 1-1.823-1.811v-2.37c0-.49.197-.935.517-1.26a1.81 1.81 0 0 1 1.304-.548H18V5.725a1.066 1.066 0 0 0-1.07-1.065z"/>
        <path d="M18.672 9.908a1.018 1.018 0 0 0-.677-.248h-5.991c-.554 0-1.004.424-1.004.947v2.106c0 .523.45.947 1.005.947h5.99c.115 0 .223-.019.326-.051a.988.988 0 0 0 .351-.197.92.92 0 0 0 .328-.699v-2.106a.92.92 0 0 0-.328-.699zM14 11.909c0 .415-.336.751-.75.751h-.5a.751.751 0 0 1-.75-.75v-.5a.759.759 0 0 1 .75-.75h.499c.415 0 .751.336.751.75v.5z"/>
    </g>
</svg>
