<?xml version="1.0" encoding="UTF-8"?>
<svg width="22px" height="23px" viewBox="0 0 22 23" version="1.1" xmlns="http://www.w3.org/2000/svg" xmlns:xlink="http://www.w3.org/1999/xlink">
    <!-- Generator: Sketch 55 (78076) - https://sketchapp.com -->
    <title>warning</title>
    <desc>Created with Sketch.</desc>
    <g id="Page-1" stroke="none" stroke-width="1" fill="none" fill-rule="evenodd">
        <g id="Startegy-profile:-Desktops---1140" transform="translate(-1093.000000, -293.000000)" fill="#B3C5DC" fill-rule="nonzero">
            <g id="Strategies" transform="translate(150.000000, 117.000000)">
                <g id="Strategy">
                    <g id="Report" transform="translate(943.000000, 176.000000)">
                        <g id="warning">
                            <path d="M18.6521232,0.667 L3.34783194,0.667 C1.5017201,0.667 0,2.16872316 0,4.01483876 L0,14.5365857 C0,16.3826564 1.5017201,17.8843796 3.34783194,17.8843796 L13.671558,17.8843796 L18.3135603,22.527333 C18.4053861,22.6182174 18.5278355,22.667 18.6521681,22.667 C18.7133703,22.667 18.775559,22.6545802 18.8348782,22.6306373 C19.0137323,22.5569702 19.1304426,22.3819268 19.1304426,22.1887245 L19.1304426,17.8508864 C20.7508009,17.6175102 22,16.2200329 22,14.5365408 L22,4.01483876 C21.9999552,2.16872316 20.4981902,0.667 18.6521232,0.667 Z M21,14.3068216 C21,15.5979751 19.9314262,16.6475228 18.6190572,16.6475228 C18.3561995,16.6475228 18.1428508,16.8572655 18.1428508,17.1156806 L18.1428508,20.667 L14.1942705,16.7842352 C14.1047614,16.6971606 13.983779,16.6475228 13.8571269,16.6475228 L3.38094281,16.6475228 C2.06857381,16.6475228 1,15.5979312 1,14.3068216 L1,4.0077012 C1,2.71654772 2.06857381,1.667 3.38094281,1.667 L18.6190572,1.667 C19.9314262,1.667 21,2.71659161 21,4.0077012 L21,14.3068216 Z" id="Shape"></path>
                            <path d="M10.5,12.667 C9.67298438,12.667 9,13.3399844 9,14.167 C9,14.9940156 9.67298438,15.667 10.5,15.667 C11.3270156,15.667 12,14.9940156 12,14.167 C12,13.3399844 11.3270156,12.667 10.5,12.667 Z M10.5,14.667 C10.2240086,14.667 10,14.442007 10,14.167 C10,13.891993 10.2240086,13.667 10.5,13.667 C10.7759914,13.667 11,13.891993 11,14.167 C11,14.442007 10.7759914,14.667 10.5,14.667 Z" id="Shape"></path>
                            <path d="M12.4975732,3.20473452 C12.1438024,2.86275076 11.6437065,2.667 11.124917,2.667 L9.87479425,2.667 C9.35600475,2.667 8.85719799,2.86275076 8.50336866,3.20473452 C8.14959794,3.54561085 7.96828825,4.00798766 8.00456191,4.48275709 L8.53337208,10.0256362 C8.6058608,10.9459073 9.46599773,11.667 10.4998263,11.667 C11.5249234,11.667 12.3850604,10.9458546 12.4563185,10.034601 L12.9951493,4.47484691 C13.0326536,4.00914782 12.8513439,3.54677101 12.4975732,3.20473452 Z M11.9983689,4.695 L11.3508343,9.63801563 C11.319357,9.93501563 10.9446497,10.167 10.4874549,10.167 C10.0407994,10.167 9.66756769,9.93501563 9.63454455,9.63 L9.0019758,4.70301563 C8.98700999,4.56201563 9.05741251,4.428 9.20130908,4.326 C9.34520565,4.224 9.54004216,4.167 9.74991475,4.167 L11.2488842,4.167 C11.4587568,4.167 11.6535933,4.224 11.7974898,4.326 C11.9413864,4.428 12.0118592,4.56201563 11.9983689,4.695 Z" id="Shape"></path>
                        </g>
                    </g>
                </g>
            </g>
        </g>
    </g>
</svg>