<svg height="512pt" viewBox="0 1 512 511" width="512pt" xmlns="http://www.w3.org/2000/svg"><path d="m42.667969 222.320312c-4.714844 0-8.535157 3.820313-8.535157 8.535157v51.199219c0 4.714843 3.820313 8.535156 8.535157 8.535156 4.710937 0 8.53125-3.820313 8.53125-8.535156v-51.199219c0-4.714844-3.820313-8.535157-8.53125-8.535157zm0 0"/><path d="m486.398438 188.1875h-37.546876c-12.257812-34.785156-33.734374-65.589844-62.128906-89.128906l24.585938-4.90625c2.984375-.609375 5.421875-2.769532 6.386718-5.660156.964844-2.894532.316407-6.082032-1.707031-8.363282-2.019531-2.28125-5.105469-3.3125-8.09375-2.703125l-39.792969 7.953125c-1.757812-1.152344-3.488281-2.347656-5.296874-3.414062-13.207032-48.113282-56.945313-81.464844-106.839844-81.464844-49.894532 0-93.628906 33.351562-106.835938 81.464844-35.699218 21.792968-63.847656 54.015625-80.640625 92.324218l-9.386719-23.398437c-1.75-4.378906-6.714843-6.511719-11.09375-4.761719-4.378906 1.746094-6.507812 6.714844-4.761718 11.09375l12.417968 30.964844h-30.0625c-14.140624 0-25.601562 11.460938-25.601562 25.601562v85.332032c0 14.140625 11.460938 25.601562 25.601562 25.601562h37.546876c11.558593 32.898438 31.367187 62.277344 57.53125 85.332032h-18.28125c-4.710938 0-8.53125 3.820312-8.53125 8.535156 0 4.710937 3.820312 8.53125 8.53125 8.53125h40.832031c1.972656 1.296875 3.910156 2.628906 5.976562 3.867187 4.585938 16.636719 12.996094 31.96875 24.566407 44.773438.605468 1.050781 1.429687 1.957031 2.414062 2.664062 20.84375 21.765625 49.675781 34.074219 79.8125 34.074219s58.96875-12.308594 79.8125-34.074219c.984375-.707031 1.808594-1.613281 2.414062-2.664062 11.578126-12.789063 20.003907-28.105469 24.609376-44.730469 35.71875-21.796875 63.882812-54.039062 80.675781-92.367188l9.386719 23.398438c1.128906 2.832031 3.6875 4.847656 6.707031 5.285156 3.015625.433594 6.039062-.773437 7.925781-3.167968 1.886719-2.394532 2.351562-5.617188 1.222656-8.449219l-12.417968-31.007813h30.0625c14.140624 0 25.601562-11.460937 25.601562-25.601562v-85.332032c0-14.140624-11.460938-25.601562-25.601562-25.601562zm-230.398438-170.664062c34.875-.039063 66.890625 19.285156 83.109375 50.15625 16.21875 30.875 13.96875 68.199218-5.847656 96.898437-9.480469-17.71875-25.097657-31.371094-43.921875-38.402344 6.167968-9.472656 9.410156-20.550781 9.328125-31.855469 0-28.234374-19.140625-51.199218-42.667969-51.199218s-42.667969 22.964844-42.667969 51.199218c-.085937 11.308594 3.160157 22.390626 9.328125 31.863282-18.824218 7.03125-34.441406 20.683594-43.921875 38.402344-19.820312-28.699219-22.074219-66.027344-5.855469-96.902344 16.222657-30.878906 48.238282-50.199219 83.117188-50.160156zm-65 161.421874c7.8125-19.679687 24.71875-34.324218 45.3125-39.25 3.4375 2.183594 7.203125 3.800782 11.152344 4.792969v60.332031c-21.21875-1.933593-41.140625-11.0625-56.464844-25.875zm65-50.488281c-14.113281 0-25.601562-15.3125-25.601562-34.136719 0-18.824218 11.488281-34.132812 25.601562-34.132812s25.601562 15.308594 25.601562 34.132812c0 18.824219-11.488281 34.136719-25.601562 34.136719zm8.535156 16.03125c3.949219-.988281 7.714844-2.605469 11.152344-4.785156 20.59375 4.925781 37.5 19.570313 45.3125 39.253906-15.324219 14.804688-35.246094 23.929688-56.464844 25.863281zm-247.46875 154.632813v-85.332032c0-4.714843 3.820313-8.535156 8.535156-8.535156h85.332032c4.710937 0 8.53125 3.820313 8.53125 8.535156v85.332032c0 4.714844-3.820313 8.535156-8.53125 8.535156h-85.332032c-4.714843 0-8.535156-3.820312-8.535156-8.535156zm316.195313 155.589844c-9.480469-17.71875-25.097657-31.371094-43.921875-38.402344 6.167968-9.472656 9.410156-20.550782 9.328125-31.851563 0-28.238281-19.140625-51.203125-42.667969-51.203125s-42.667969 22.964844-42.667969 51.203125c-.085937 11.304688 3.160157 22.386719 9.328125 31.863281-18.824218 7.027344-34.441406 20.679688-43.921875 38.398438-26.953125-39.066406-20.503906-92.101562 15.019531-123.570312 35.527344-31.472657 88.957032-31.472657 124.484376 0 35.523437 31.46875 41.972656 84.503906 15.019531 123.570312zm-77.261719-36.121094c-14.113281 0-25.601562-15.308594-25.601562-34.132813 0-18.828125 11.488281-34.136719 25.601562-34.136719s25.601562 15.308594 25.601562 34.136719c0 18.824219-11.488281 34.132813-25.601562 34.132813zm-19.6875 11.246094c3.4375 2.179687 7.203125 3.796874 11.152344 4.785156v60.332031c-21.21875-1.933594-41.140625-11.0625-56.464844-25.871094 7.816406-19.679687 24.722656-34.324219 45.3125-39.246093zm28.222656 4.785156c3.949219-.988282 7.714844-2.605469 11.152344-4.785156 20.59375 4.925781 37.5 19.570312 45.3125 39.253906-15.324219 14.804687-35.246094 23.929687-56.464844 25.863281zm102.066406-26.5625c.128907-2.175782.332032-4.335938.332032-6.535156.039062-57.707032-44.195313-105.792969-101.703125-110.5625-57.507813-4.769532-109.058594 35.375-118.527344 92.300781l-1.808594-9.046875c-1.054687-4.476563-5.46875-7.308594-9.976562-6.40625-4.511719.902344-7.492188 5.214844-6.746094 9.75l3.964844 19.875c-22.542969-19.800782-39.988281-44.742188-50.855469-72.710938h29.652344c14.136718 0 25.601562-11.460937 25.601562-25.601562v-85.332032c0-14.140624-11.464844-25.601562-25.601562-25.601562h-11.863282l16.257813-9.753906c2.671875-1.539063 4.304687-4.402344 4.269531-7.488282-.035156-3.085937-1.734375-5.910156-4.441406-7.390624-2.707031-1.480469-6.003906-1.382813-8.617188.253906l-19.832031 11.894531c13.359375-28.128906 33.535157-52.472656 58.691407-70.824219-.128907 2.175782-.332032 4.332032-.332032 6.535156 0 27.457032 10.234375 53.925782 28.707032 74.238282.605468 1.050781 1.429687 1.957031 2.414062 2.664062 20.84375 21.765625 49.675781 34.074219 79.8125 34.074219s58.96875-12.308594 79.8125-34.074219c.984375-.707031 1.808594-1.613281 2.414062-2.664062 14.191407-15.667969 23.585938-35.082032 27.070313-55.933594l1.808594 8.976562c.808593 3.972657 4.304687 6.828126 8.359375 6.828126.574218.003906 1.148437-.054688 1.707031-.171876 2.21875-.453124 4.167969-1.769531 5.414063-3.65625 1.25-1.886718 1.695312-4.195312 1.242187-6.414062l-3.964844-19.863281c22.554688 19.8125 40 44.777343 50.855469 72.769531h-29.652344c-14.136718 0-25.601562 11.460938-25.601562 25.601562v85.332032c0 14.140625 11.464844 25.601562 25.601562 25.601562h11.863282l-16.257813 9.753906c-3.945313 2.46875-5.183594 7.640626-2.789063 11.628907 2.398438 3.988281 7.546876 5.320312 11.578126 2.996093l19.832031-11.894531c-13.355469 28.136719-33.53125 52.492188-58.691407 70.851563zm128.332032-108.9375c0 4.714844-3.820313 8.535156-8.535156 8.535156h-85.332032c-4.710937 0-8.53125-3.820312-8.53125-8.535156v-85.332032c0-4.714843 3.820313-8.535156 8.53125-8.535156h85.332032c4.714843 0 8.535156 3.820313 8.535156 8.535156zm0 0"/><path d="m418.132812 222.320312c-4.710937 0-8.53125 3.820313-8.53125 8.535157v51.199219c0 4.714843 3.820313 8.535156 8.53125 8.535156 4.714844 0 8.535157-3.820313 8.535157-8.535156v-51.199219c0-4.714844-3.820313-8.535157-8.535157-8.535157zm0 0"/></svg>