<?xml version="1.0" encoding="UTF-8"?>
<svg width="41px" height="12px" viewBox="0 0 41 12" version="1.1" xmlns="http://www.w3.org/2000/svg" xmlns:xlink="http://www.w3.org/1999/xlink">
    <!-- Generator: Sketch 55 (78076) - https://sketchapp.com -->
    <title>img-mw-table-chart-1</title>
    <desc>Created with Sketch.</desc>
    <g id="Page-1" stroke="none" stroke-width="1" fill="none" fill-rule="evenodd">
        <g id="Dashboard:-Tablet---768px" transform="translate(-251.000000, -396.000000)" stroke="#22C993">
            <g id="Market-watch" transform="translate(24.000000, 219.000000)">
                <g id="Table" transform="translate(15.000000, 170.000000)">
                    <g id="Item-1">
                        <path d="M212,18 C215.988254,16.7497014 218.559064,16.0830347 219.712429,16 C221.442477,15.8754479 220.87429,17.2260886 222.243447,17.2625391 C223.612604,17.2989897 223.561122,16.2138803 225.314343,16.1491376 C227.067565,16.0843949 226.965545,17.4558197 229.352965,17 C231.740385,16.5441803 231.322722,15.9551472 232.691884,14.7405759 C234.061046,13.5260046 233.615861,12.2948127 234.695652,12.2605499 C235.775443,12.2262872 236.008521,14.4450461 237.113188,14.600284 C238.217856,14.7555219 237.933498,14.6222658 239.957555,13 C241.981611,11.3777342 242.085247,10.5462976 243.238124,9.69119575 C244.391001,8.83609393 245.447156,8.20352122 246.59382,8.07780833 C247.740484,7.95209545 247.558842,9.06507406 249.139405,9.04421721 C250.193114,9.03031265 251.310063,8.68224024 252.490252,8" id="img-mw-table-chart-1"></path>
                    </g>
                </g>
            </g>
        </g>
    </g>
</svg>