<?xml version="1.0" encoding="UTF-8"?>
<svg width="387px" height="672px" viewBox="0 0 387 672" version="1.1" xmlns="http://www.w3.org/2000/svg" xmlns:xlink="http://www.w3.org/1999/xlink">
    <!-- Generator: Sketch 55 (78076) - https://sketchapp.com -->
    <title>img-help-bg-1</title>
    <desc>Created with Sketch.</desc>
    <defs>
        <linearGradient x1="95.2103237%" y1="12.4908095%" x2="8.27349259%" y2="87.1559093%" id="linearGradient-1">
            <stop stop-color="#FF8D72" offset="0%"></stop>
            <stop stop-color="#FF6491" offset="100%"></stop>
        </linearGradient>
        <linearGradient x1="1.46315029%" y1="1.46315029%" x2="98.2229949%" y2="98.2229949%" id="linearGradient-2">
            <stop stop-color="#FF5980" offset="0%"></stop>
            <stop stop-color="#FFA882" offset="100%"></stop>
        </linearGradient>
    </defs>
    <g id="Page-1" stroke="none" stroke-width="1" fill="none" fill-rule="evenodd" opacity="0.362513951">
        <g id="Home-page:-Desktops---1140-Open-Use-Cses-Dropdown-Menu-" transform="translate(-1053.000000, -3371.000000)">
            <g id="img-help-bg-1" transform="translate(1054.000000, 3372.000000)">
                <path d="M335,670 C520.015391,670 670,520.015391 670,335 C670,149.984609 520.015391,0 335,0 C149.984609,0 0,149.984609 0,335 C0,520.015391 149.984609,670 335,670 Z" id="Oval" stroke="url(#linearGradient-1)" stroke-dasharray="0,3"></path>
                <circle id="Oval" stroke="url(#linearGradient-1)" opacity="0.40004" cx="335" cy="335" r="265"></circle>
                <path d="M335,535 C445.45695,535 535,445.45695 535,335 C535,224.54305 445.45695,135 335,135 C224.54305,135 135,224.54305 135,335 C135,445.45695 224.54305,535 335,535 Z" id="Oval" stroke="url(#linearGradient-1)" stroke-dasharray="0,3"></path>
                <circle id="Oval" stroke="url(#linearGradient-1)" opacity="0.40004" cx="335" cy="335" r="120"></circle>
                <g id="Group-9" opacity="0.699567522" transform="translate(123.000000, 54.000000)" fill="url(#linearGradient-2)">
                    <circle id="Oval" opacity="0.302548363" cx="12.5" cy="12.5" r="12.5"></circle>
                    <circle id="Oval" cx="12.5" cy="12.5" r="7.5"></circle>
                </g>
                <g id="Group-9-Copy-2" opacity="0.699567522" transform="translate(344.000000, 523.000000)" fill="url(#linearGradient-2)">
                    <circle id="Oval" opacity="0.302548363" cx="12.5" cy="12.5" r="12.5"></circle>
                    <circle id="Oval" cx="12.5" cy="12.5" r="7.5"></circle>
                </g>
                <g id="Group-9-Copy-3" opacity="0.699567522" transform="translate(203.000000, 335.000000)" fill="url(#linearGradient-2)">
                    <circle id="Oval" opacity="0.302548363" cx="12.5" cy="12.5" r="12.5"></circle>
                    <circle id="Oval" cx="12.5" cy="12.5" r="7.5"></circle>
                </g>
            </g>
        </g>
    </g>
</svg>